<?xml version="1.0" encoding="UTF-8" standalone="no"?>
<svg
   xmlns:dc="http://purl.org/dc/elements/1.1/"
   xmlns:cc="http://creativecommons.org/ns#"
   xmlns:rdf="http://www.w3.org/1999/02/22-rdf-syntax-ns#"
   xmlns:svg="http://www.w3.org/2000/svg"
   xmlns="http://www.w3.org/2000/svg"
   version="1.1"
   id="svg2"
   viewBox="0 0 15.999999 15.999999"
   height="16"
   width="16">
  <defs
     id="defs4">
    <clipPath
       clipPathUnits="userSpaceOnUse"
       id="clipPath4164">
      <path
         d="M 0,32 32,32 32,0 0,0 0,32 Z"
         id="path4166" />
    </clipPath>
    <clipPath
       clipPathUnits="userSpaceOnUse"
       id="clipPath4176">
      <path
         d="M 0,32 32,32 32,0 0,0 0,32 Z"
         id="path4178" />
    </clipPath>
    <clipPath
       clipPathUnits="userSpaceOnUse"
       id="clipPath4188">
      <path
         d="M 0,32 32,32 32,0 0,0 0,32 Z"
         id="path4190" />
    </clipPath>
    <clipPath
       id="clipPath4166"
       clipPathUnits="userSpaceOnUse">
      <path
         id="path4168"
         d="M 0,32 32,32 32,0 0,0 0,32 Z" />
    </clipPath>
    <clipPath
       id="clipPath4178"
       clipPathUnits="userSpaceOnUse">
      <path
         id="path4180"
         d="M 0,32 32,32 32,0 0,0 0,32 Z" />
    </clipPath>
    <clipPath
       id="clipPath4219"
       clipPathUnits="userSpaceOnUse">
      <path
         id="path4221"
         d="M 0,32 32,32 32,0 0,0 0,32 Z" />
    </clipPath>
    <clipPath
       id="clipPath4231"
       clipPathUnits="userSpaceOnUse">
      <path
         id="path4233"
         d="M 0,32 32,32 32,0 0,0 0,32 Z" />
    </clipPath>
    <clipPath
       clipPathUnits="userSpaceOnUse"
       id="clipPath8097">
      <path
         d="M 0,32 32,32 32,0 0,0 0,32 Z"
         id="path8099" />
    </clipPath>
    <clipPath
       clipPathUnits="userSpaceOnUse"
       id="clipPath8109">
      <path
         d="M 0,32 32,32 32,0 0,0 0,32 Z"
         id="path8111" />
    </clipPath>
  </defs>
  <metadata
     id="metadata7">
    <rdf:RDF>
      <cc:Work
         rdf:about="">
        <dc:format>image/svg+xml</dc:format>
        <dc:type
           rdf:resource="http://purl.org/dc/dcmitype/StillImage" />
        <dc:title></dc:title>
      </cc:Work>
    </rdf:RDF>
  </metadata>
  <g
     transform="matrix(0.49999994,0,0,-0.49999994,0.05675516,14.064862)"
     id="g8095"
     clip-path="url(#clipPath8097)">
    <g
       id="g8101"
       transform="translate(8,0)">
      <path
         d="M 0,0 0,8.01 C -0.847,7.369 -1.894,6.999 -3,6.999 c -2.757,0 -5,2.243 -5,5 0,2.757 2.243,5 5,5 1.106,0 2.153,-0.37 3,-1.011 L 0,24 24,24 24,0 Z"
         style="fill:#f6f6f6;fill-opacity:1;fill-rule:nonzero;stroke:none"
         id="path8103" />
    </g>
  </g>
  <g
     transform="matrix(0.49999994,0,0,-0.49999994,0.05675516,14.064862)"
     id="g8105">
    <g
       clip-path="url(#clipPath8109)"
       id="g8107">
      <path
         id="path8113"
         style="fill:#424242;fill-opacity:1;fill-rule:nonzero;stroke:none"
         d="M 30,22 30,2 10,2 10,11 7.816,11 C 7.403,9.837 6.304,8.999 5,8.999 c -1.656,0 -3,1.344 -3,3 0,1.656 1.344,3 3,3 1.304,0 2.402,-0.837 2.815,-1.999 l 2.185,0 0,9 z" />
    </g>
  </g>
  <g
     transform="matrix(1.2499999,0,0,-1.2499999,-85.281563,0.91231191)"
     id="g8115" />
</svg>
