<?xml version="1.0" encoding="UTF-8" standalone="no"?>
<svg
   xmlns:dc="http://purl.org/dc/elements/1.1/"
   xmlns:cc="http://creativecommons.org/ns#"
   xmlns:rdf="http://www.w3.org/1999/02/22-rdf-syntax-ns#"
   xmlns:svg="http://www.w3.org/2000/svg"
   xmlns="http://www.w3.org/2000/svg"
   version="1.1"
   id="svg2"
   viewBox="0 0 15.999999 15.999999"
   height="16"
   width="16">
  <defs
     id="defs4">
    <clipPath
       clipPathUnits="userSpaceOnUse"
       id="clipPath4164">
      <path
         d="M 0,32 32,32 32,0 0,0 0,32 Z"
         id="path4166" />
    </clipPath>
    <clipPath
       clipPathUnits="userSpaceOnUse"
       id="clipPath4176">
      <path
         d="M 0,32 32,32 32,0 0,0 0,32 Z"
         id="path4178" />
    </clipPath>
    <clipPath
       clipPathUnits="userSpaceOnUse"
       id="clipPath4188">
      <path
         d="M 0,32 32,32 32,0 0,0 0,32 Z"
         id="path4190" />
    </clipPath>
    <clipPath
       id="clipPath4166"
       clipPathUnits="userSpaceOnUse">
      <path
         id="path4168"
         d="M 0,32 32,32 32,0 0,0 0,32 Z" />
    </clipPath>
    <clipPath
       id="clipPath4178"
       clipPathUnits="userSpaceOnUse">
      <path
         id="path4180"
         d="M 0,32 32,32 32,0 0,0 0,32 Z" />
    </clipPath>
    <clipPath
       id="clipPath4219"
       clipPathUnits="userSpaceOnUse">
      <path
         id="path4221"
         d="M 0,32 32,32 32,0 0,0 0,32 Z" />
    </clipPath>
    <clipPath
       id="clipPath4231"
       clipPathUnits="userSpaceOnUse">
      <path
         id="path4233"
         d="M 0,32 32,32 32,0 0,0 0,32 Z" />
    </clipPath>
    <clipPath
       clipPathUnits="userSpaceOnUse"
       id="clipPath4167">
      <path
         d="M 0,16 16,16 16,0 0,0 0,16 Z"
         id="path4169" />
    </clipPath>
    <clipPath
       clipPathUnits="userSpaceOnUse"
       id="clipPath4179">
      <path
         d="M 0,16 16,16 16,0 0,0 0,16 Z"
         id="path4181" />
    </clipPath>
    <clipPath
       clipPathUnits="userSpaceOnUse"
       id="clipPath4191">
      <path
         d="M 0,16 16,16 16,0 0,0 0,16 Z"
         id="path4193" />
    </clipPath>
    <clipPath
       clipPathUnits="userSpaceOnUse"
       id="clipPath4232">
      <path
         d="M 0,16 16,16 16,0 0,0 0,16 Z"
         id="path4234" />
    </clipPath>
    <clipPath
       clipPathUnits="userSpaceOnUse"
       id="clipPath4244">
      <path
         d="M 0,16 16,16 16,0 0,0 0,16 Z"
         id="path4246" />
    </clipPath>
    <clipPath
       clipPathUnits="userSpaceOnUse"
       id="clipPath4256">
      <path
         d="M 0,16 16,16 16,0 0,0 0,16 Z"
         id="path4258" />
    </clipPath>
    <clipPath
       clipPathUnits="userSpaceOnUse"
       id="clipPath4185">
      <path
         d="M 0,32 32,32 32,0 0,0 0,32 Z"
         id="path4187" />
    </clipPath>
    <clipPath
       clipPathUnits="userSpaceOnUse"
       id="clipPath4199">
      <path
         d="M 0,32 32,32 32,0 0,0 0,32 Z"
         id="path4201" />
    </clipPath>
    <clipPath
       clipPathUnits="userSpaceOnUse"
       id="clipPath4189">
      <path
         d="M 0,32 32,32 32,0 0,0 0,32 Z"
         id="path4191-5" />
    </clipPath>
    <clipPath
       clipPathUnits="userSpaceOnUse"
       id="clipPath4201">
      <path
         d="M 0,32 32,32 32,0 0,0 0,32 Z"
         id="path4203" />
    </clipPath>
    <clipPath
       clipPathUnits="userSpaceOnUse"
       id="clipPath4217">
      <path
         d="M 0,32 32,32 32,0 0,0 0,32 Z"
         id="path4219" />
    </clipPath>
  </defs>
  <metadata
     id="metadata7">
    <rdf:RDF>
      <cc:Work
         rdf:about="">
        <dc:format>image/svg+xml</dc:format>
        <dc:type
           rdf:resource="http://purl.org/dc/dcmitype/StillImage" />
        <dc:title></dc:title>
      </cc:Work>
    </rdf:RDF>
  </metadata>
  <g
     id="g4191"
     transform="matrix(0.53333327,0,0,-0.53333327,-0.51723989,16.545757)">
    <path
       d="m 25,7 -1,0 0,18 1,0 0,-18 z M 8,7 7,7 7,25 8,25 8,7 Z m 15,24 0,-3 -14,0 0,3 -8,0 0,-30 8,0 0,4 14,0 0,-4 8,0 0,30 -8,0 z"
       style="fill:#f6f6f6;fill-opacity:1;fill-rule:nonzero;stroke:none"
       id="path4193-6" />
    <path
       d="m 20,22 -8,0 0,-3 8,0 0,3 z m 0,-5 -8,0 0,-3 8,0 0,3 z m 0,-5 -8,0 0,-3 8,0 0,3 z M 22,7 10,7 10,26 22,26 22,7 Z M 3,27 3,3 5,3 7,3 7,5 5,5 l 0,22 2,0 0,2 -4,0 0,-2 z m 26,2 0,-2 0,-24 -2,0 -2,0 0,2 2,0 0,22 -2,0 0,2 4,0 z"
       style="fill:#424242;fill-opacity:1;fill-rule:nonzero;stroke:none"
       id="path4195-8" />
    <path
       d="m 20,12 -8,0 0,-3 8,0 0,3 z m 0,5 -8,0 0,-3 8,0 0,3 z m 0,2 -8,0 0,3 8,0 0,-3 z"
       style="fill:#f0eff1;fill-opacity:1;fill-rule:nonzero;stroke:none"
       id="path4197" />
  </g>
</svg>
