<?xml version="1.0" encoding="UTF-8" standalone="no"?>
<svg
   xmlns:dc="http://purl.org/dc/elements/1.1/"
   xmlns:cc="http://creativecommons.org/ns#"
   xmlns:rdf="http://www.w3.org/1999/02/22-rdf-syntax-ns#"
   xmlns:svg="http://www.w3.org/2000/svg"
   xmlns="http://www.w3.org/2000/svg"
   version="1.1"
   id="svg2"
   viewBox="0 0 15.999999 15.999999"
   height="16"
   width="16">
  <defs
     id="defs4">
    <clipPath
       clipPathUnits="userSpaceOnUse"
       id="clipPath4164">
      <path
         d="M 0,32 32,32 32,0 0,0 0,32 Z"
         id="path4166" />
    </clipPath>
    <clipPath
       clipPathUnits="userSpaceOnUse"
       id="clipPath4176">
      <path
         d="M 0,32 32,32 32,0 0,0 0,32 Z"
         id="path4178" />
    </clipPath>
    <clipPath
       clipPathUnits="userSpaceOnUse"
       id="clipPath4188">
      <path
         d="M 0,32 32,32 32,0 0,0 0,32 Z"
         id="path4190" />
    </clipPath>
    <clipPath
       id="clipPath4166"
       clipPathUnits="userSpaceOnUse">
      <path
         id="path4168"
         d="M 0,32 32,32 32,0 0,0 0,32 Z" />
    </clipPath>
    <clipPath
       id="clipPath4178"
       clipPathUnits="userSpaceOnUse">
      <path
         id="path4180"
         d="M 0,32 32,32 32,0 0,0 0,32 Z" />
    </clipPath>
    <clipPath
       id="clipPath4219"
       clipPathUnits="userSpaceOnUse">
      <path
         id="path4221"
         d="M 0,32 32,32 32,0 0,0 0,32 Z" />
    </clipPath>
    <clipPath
       id="clipPath4231"
       clipPathUnits="userSpaceOnUse">
      <path
         id="path4233"
         d="M 0,32 32,32 32,0 0,0 0,32 Z" />
    </clipPath>
    <clipPath
       clipPathUnits="userSpaceOnUse"
       id="clipPath4167">
      <path
         d="M 0,32 32,32 32,0 0,0 0,32 Z"
         id="path4169" />
    </clipPath>
    <clipPath
       clipPathUnits="userSpaceOnUse"
       id="clipPath4179">
      <path
         d="M 0,32 32,32 32,0 0,0 0,32 Z"
         id="path4181" />
    </clipPath>
    <clipPath
       clipPathUnits="userSpaceOnUse"
       id="clipPath4223">
      <path
         d="M 0,32 32,32 32,0 0,0 0,32 Z"
         id="path4225" />
    </clipPath>
  </defs>
  <metadata
     id="metadata7">
    <rdf:RDF>
      <cc:Work
         rdf:about="">
        <dc:format>image/svg+xml</dc:format>
        <dc:type
           rdf:resource="http://purl.org/dc/dcmitype/StillImage" />
        <dc:title></dc:title>
      </cc:Work>
    </rdf:RDF>
  </metadata>
  <g
     id="g8135"
     transform="matrix(0.49999994,0,0,-0.49999994,0.00510224,16.041719)">
    <g
       id="g8137"
       transform="translate(0,32.0004)">
      <path
         d="m 0,0 0,-32 12,0 0,9.999 20,0 L 32,0 0,0 Z"
         style="fill:#f6f6f6;fill-opacity:1;fill-rule:nonzero;stroke:none"
         id="path8139" />
    </g>
    <path
       d="m 2,22 8,0 0,8 -8,0 0,-8 z"
       style="fill:#424242;fill-opacity:1;fill-rule:nonzero;stroke:none"
       id="path8141" />
    <path
       d="m 12,22 8,0 0,8 -8,0 0,-8 z"
       style="fill:#424242;fill-opacity:1;fill-rule:nonzero;stroke:none"
       id="path8143" />
    <path
       d="m 22,22 8,0 0,8 -8,0 0,-8 z"
       style="fill:#424242;fill-opacity:1;fill-rule:nonzero;stroke:none"
       id="path8145" />
    <path
       d="m 2,12 8,0 0,8 -8,0 0,-8 z"
       style="fill:#424242;fill-opacity:1;fill-rule:nonzero;stroke:none"
       id="path8147" />
    <path
       d="m 2,2 8,0 0,8 -8,0 0,-8 z"
       style="fill:#424242;fill-opacity:1;fill-rule:nonzero;stroke:none"
       id="path8149" />
    <path
       d="m 12,12 8,0 0,8 -8,0 0,-8 z"
       style="fill:#424242;fill-opacity:1;fill-rule:nonzero;stroke:none"
       id="path8151" />
    <path
       d="m 22,12 8,0 0,8 -8,0 0,-8 z"
       style="fill:#424242;fill-opacity:1;fill-rule:nonzero;stroke:none"
       id="path8153" />
  </g>
</svg>
