<?xml version="1.0" encoding="UTF-8" standalone="no"?>
<svg
   xmlns:dc="http://purl.org/dc/elements/1.1/"
   xmlns:cc="http://creativecommons.org/ns#"
   xmlns:rdf="http://www.w3.org/1999/02/22-rdf-syntax-ns#"
   xmlns:svg="http://www.w3.org/2000/svg"
   xmlns="http://www.w3.org/2000/svg"
   version="1.1"
   id="svg2"
   viewBox="0 0 15.999999 15.999999"
   height="16"
   width="16">
  <defs
     id="defs4">
    <clipPath
       clipPathUnits="userSpaceOnUse"
       id="clipPath4164">
      <path
         d="M 0,32 32,32 32,0 0,0 0,32 Z"
         id="path4166" />
    </clipPath>
    <clipPath
       clipPathUnits="userSpaceOnUse"
       id="clipPath4176">
      <path
         d="M 0,32 32,32 32,0 0,0 0,32 Z"
         id="path4178" />
    </clipPath>
    <clipPath
       clipPathUnits="userSpaceOnUse"
       id="clipPath4188">
      <path
         d="M 0,32 32,32 32,0 0,0 0,32 Z"
         id="path4190" />
    </clipPath>
    <clipPath
       id="clipPath4166"
       clipPathUnits="userSpaceOnUse">
      <path
         id="path4168"
         d="M 0,32 32,32 32,0 0,0 0,32 Z" />
    </clipPath>
    <clipPath
       id="clipPath4178"
       clipPathUnits="userSpaceOnUse">
      <path
         id="path4180"
         d="M 0,32 32,32 32,0 0,0 0,32 Z" />
    </clipPath>
    <clipPath
       id="clipPath4219"
       clipPathUnits="userSpaceOnUse">
      <path
         id="path4221"
         d="M 0,32 32,32 32,0 0,0 0,32 Z" />
    </clipPath>
    <clipPath
       id="clipPath4231"
       clipPathUnits="userSpaceOnUse">
      <path
         id="path4233"
         d="M 0,32 32,32 32,0 0,0 0,32 Z" />
    </clipPath>
    <clipPath
       clipPathUnits="userSpaceOnUse"
       id="clipPath4167">
      <path
         d="M 0,16 16,16 16,0 0,0 0,16 Z"
         id="path4169" />
    </clipPath>
    <clipPath
       clipPathUnits="userSpaceOnUse"
       id="clipPath4179">
      <path
         d="M 0,16 16,16 16,0 0,0 0,16 Z"
         id="path4181" />
    </clipPath>
    <clipPath
       clipPathUnits="userSpaceOnUse"
       id="clipPath4191">
      <path
         d="M 0,16 16,16 16,0 0,0 0,16 Z"
         id="path4193" />
    </clipPath>
    <clipPath
       clipPathUnits="userSpaceOnUse"
       id="clipPath4232">
      <path
         d="M 0,16 16,16 16,0 0,0 0,16 Z"
         id="path4234" />
    </clipPath>
    <clipPath
       clipPathUnits="userSpaceOnUse"
       id="clipPath4244">
      <path
         d="M 0,16 16,16 16,0 0,0 0,16 Z"
         id="path4246" />
    </clipPath>
    <clipPath
       clipPathUnits="userSpaceOnUse"
       id="clipPath4256">
      <path
         d="M 0,16 16,16 16,0 0,0 0,16 Z"
         id="path4258" />
    </clipPath>
    <clipPath
       clipPathUnits="userSpaceOnUse"
       id="clipPath4185">
      <path
         d="M 0,32 32,32 32,0 0,0 0,32 Z"
         id="path4187" />
    </clipPath>
    <clipPath
       clipPathUnits="userSpaceOnUse"
       id="clipPath4199">
      <path
         d="M 0,32 32,32 32,0 0,0 0,32 Z"
         id="path4201" />
    </clipPath>
  </defs>
  <metadata
     id="metadata7">
    <rdf:RDF>
      <cc:Work
         rdf:about="">
        <dc:format>image/svg+xml</dc:format>
        <dc:type
           rdf:resource="http://purl.org/dc/dcmitype/StillImage" />
        <dc:title></dc:title>
      </cc:Work>
    </rdf:RDF>
  </metadata>
  <g
     id="g4179"
     transform="matrix(0.49999994,0,0,-0.49999994,0.07289937,16.247078)">
    <g
       id="g4181">
      <g
         id="g4183"
         clip-path="url(#clipPath4185)">
        <g
           id="g4189"
           transform="translate(32,13.0371)">
          <path
             d="m 0,0 c -0.201,0.415 -0.427,0.801 -0.67,1.137 l -0.6,0.826 -3.73,0 0,4 -5,0 0,11 -12,0 0,-11 -5,0 0,-4 -3.731,0 -0.599,-0.826 C -31.573,0.801 -31.799,0.415 -32,0 l 0,-8.184 c 0.168,-0.345 0.35,-0.675 0.549,-0.971 l 0.595,-0.882 6.847,0 -0.772,1 17.562,0 -0.771,-1 6.845,0 0.596,0.882 C -0.35,-8.859 -0.168,-8.529 0,-8.184 L 0,0 Z"
             style="fill:#f6f6f6;fill-opacity:1;fill-rule:nonzero;stroke:none"
             id="path4191" />
        </g>
      </g>
    </g>
    <path
       d="m 25,8 -2,0 0,2 2,0 0,-2 z m -11,18 4,0 0,-3 -4,0 0,3 z m 3,-18 -2,0 0,2 2,0 0,-2 z M 9,8 7,8 7,10 9,10 9,8 Z m 16,4 0,5 -8,0 0,4 3,0 0,7 -8,0 0,-7 3,0 0,-4 -8,0 0,-5 -2,0 0,-6 6,0 0,6 -2,0 0,3 6,0 0,-3 -2,0 0,-6 6,0 0,6 -2,0 0,3 6,0 0,-3 -2,0 0,-6 6,0 0,6 -2,0 z"
       style="fill:#424242;fill-opacity:1;fill-rule:nonzero;stroke:none"
       id="path4193-7" />
    <g
       id="g4195">
      <g
         id="g4197"
         clip-path="url(#clipPath4199)">
        <g
           id="g4203"
           transform="translate(29.5869,8.9414)">
          <path
             d="m 0,0 c 0,1.728 -0.65,2.906 -1.587,4.059 l 1.711,0 C 0.85,3.057 1.413,1.32 1.413,0 c 0,-1.269 -0.522,-2.926 -1.207,-3.941 l -1.715,0 C -0.618,-2.787 0,-1.424 0,0"
             style="fill:#424242;fill-opacity:1;fill-rule:nonzero;stroke:none"
             id="path4205" />
        </g>
        <g
           id="g4207"
           transform="translate(3.9214,5)">
          <path
             d="m 0,0 -1.714,0 c -0.685,1.016 -1.207,2.673 -1.207,3.941 0,1.321 0.563,3.057 1.289,4.059 L 0.079,8 C -0.858,6.848 -1.508,5.669 -1.508,3.941 -1.508,2.518 -0.891,1.154 0,0"
             style="fill:#424242;fill-opacity:1;fill-rule:nonzero;stroke:none"
             id="path4209" />
        </g>
      </g>
    </g>
    <path
       d="m 25,10 -2,0 0,-2 2,0 0,2 z m -8,0 -2,0 0,-2 2,0 0,2 z m -8,0 -2,0 0,-2 2,0 0,2 z m 9,13 -4,0 0,3 4,0 0,-3 z"
       style="fill:#f0eff1;fill-opacity:1;fill-rule:nonzero;stroke:none"
       id="path4211" />
  </g>
</svg>
