<?xml version="1.0" encoding="UTF-8" standalone="no"?>
<svg
   xmlns:dc="http://purl.org/dc/elements/1.1/"
   xmlns:cc="http://creativecommons.org/ns#"
   xmlns:rdf="http://www.w3.org/1999/02/22-rdf-syntax-ns#"
   xmlns:svg="http://www.w3.org/2000/svg"
   xmlns="http://www.w3.org/2000/svg"
   version="1.1"
   id="svg2"
   viewBox="0 0 15.999999 15.999999"
   height="16"
   width="16">
  <defs
     id="defs4">
    <clipPath
       clipPathUnits="userSpaceOnUse"
       id="clipPath4164">
      <path
         d="M 0,32 32,32 32,0 0,0 0,32 Z"
         id="path4166" />
    </clipPath>
    <clipPath
       clipPathUnits="userSpaceOnUse"
       id="clipPath4176">
      <path
         d="M 0,32 32,32 32,0 0,0 0,32 Z"
         id="path4178" />
    </clipPath>
    <clipPath
       clipPathUnits="userSpaceOnUse"
       id="clipPath4188">
      <path
         d="M 0,32 32,32 32,0 0,0 0,32 Z"
         id="path4190" />
    </clipPath>
    <clipPath
       id="clipPath4166"
       clipPathUnits="userSpaceOnUse">
      <path
         id="path4168"
         d="M 0,32 32,32 32,0 0,0 0,32 Z" />
    </clipPath>
    <clipPath
       id="clipPath4178"
       clipPathUnits="userSpaceOnUse">
      <path
         id="path4180"
         d="M 0,32 32,32 32,0 0,0 0,32 Z" />
    </clipPath>
    <clipPath
       id="clipPath4219"
       clipPathUnits="userSpaceOnUse">
      <path
         id="path4221"
         d="M 0,32 32,32 32,0 0,0 0,32 Z" />
    </clipPath>
    <clipPath
       id="clipPath4231"
       clipPathUnits="userSpaceOnUse">
      <path
         id="path4233"
         d="M 0,32 32,32 32,0 0,0 0,32 Z" />
    </clipPath>
    <clipPath
       clipPathUnits="userSpaceOnUse"
       id="clipPath8097">
      <path
         d="M 0,32 32,32 32,0 0,0 0,32 Z"
         id="path8099" />
    </clipPath>
    <clipPath
       clipPathUnits="userSpaceOnUse"
       id="clipPath8109">
      <path
         d="M 0,32 32,32 32,0 0,0 0,32 Z"
         id="path8111" />
    </clipPath>
    <clipPath
       clipPathUnits="userSpaceOnUse"
       id="clipPath8121">
      <path
         d="M 0,32 32,32 32,0 0,0 0,32 Z"
         id="path8123" />
    </clipPath>
    <clipPath
       clipPathUnits="userSpaceOnUse"
       id="clipPath8110">
      <path
         d="M 0,32 32,32 32,0 0,0 0,32 Z"
         id="path8112" />
    </clipPath>
    <clipPath
       clipPathUnits="userSpaceOnUse"
       id="clipPath8122">
      <path
         d="M 0,32 32,32 32,0 0,0 0,32 Z"
         id="path8124" />
    </clipPath>
    <clipPath
       clipPathUnits="userSpaceOnUse"
       id="clipPath8140">
      <path
         d="M 0,32 32,32 32,0 0,0 0,32 Z"
         id="path8142" />
    </clipPath>
  </defs>
  <metadata
     id="metadata7">
    <rdf:RDF>
      <cc:Work
         rdf:about="">
        <dc:format>image/svg+xml</dc:format>
        <dc:type
           rdf:resource="http://purl.org/dc/dcmitype/StillImage" />
        <dc:title></dc:title>
      </cc:Work>
    </rdf:RDF>
  </metadata>
  <g
     id="g8104"
     transform="matrix(0.5714285,0,0,-0.5714285,-1.2368024,17.198827)">
    <g
       id="g8106">
      <g
         id="g8108"
         clip-path="url(#clipPath8110)">
        <g
           id="g8114"
           transform="translate(8,2)">
          <path
             d="M 0,0 C -2.508,0 -3.806,1.839 -3.979,3.661 L -4,3.723 -4,24 c 0,2.598 2.061,4 4,4 L 11.733,28 20,19.836 20,4 C 19.993,2.104 19,0.068 16,0.008 L 16,0 0,0 Z"
             style="fill:#f6f6f6;fill-opacity:1;fill-rule:nonzero;stroke:none"
             id="path8116" />
        </g>
      </g>
    </g>
    <g
       id="g8118">
      <g
         id="g8120"
         clip-path="url(#clipPath8122)">
        <g
           id="g8126"
           transform="translate(19,26)">
          <path
             d="m 0,0 0,-6 5,0 0,-14 -16,0 0,20 11,0 z M -0.088,2 -11,2 c 0,0 -2,0 -2,-2 l 0,-20 0,-0.277 c 0,0 0.32,-1.723 2,-1.723 l 16,0 0.111,0 -0.06,0.007 C 6.993,-21.955 7,-20 7,-20 l 0,15 -7.088,7 z"
             style="fill:#424242;fill-opacity:1;fill-rule:nonzero;stroke:none"
             id="path8128" />
        </g>
        <path
           d="m 15,9 6,0 0,1 -6,0 0,-1 z"
           style="fill:#424242;fill-opacity:1;fill-rule:nonzero;stroke:none"
           id="path8130" />
        <g
           id="g8132"
           transform="translate(10.752,14)">
          <path
             d="m 0,0 0.484,-0.826 c 0.141,-0.252 0.272,-0.493 0.403,-0.735 l 0.019,0 c 0.131,0.272 0.252,0.514 0.383,0.755 L 1.723,0 3.228,0 1.763,-2.347 l 1.485,-2.578 -1.576,0 -0.493,0.887 c -0.142,0.241 -0.262,0.493 -0.383,0.745 l -0.03,0 C 0.645,-3.555 0.514,-3.797 0.393,-4.038 l -0.463,-0.887 -1.682,0 1.672,2.508 L -1.712,0 0,0 Z"
             style="fill:#424242;fill-opacity:1;fill-rule:nonzero;stroke:none"
             id="path8134" />
        </g>
      </g>
    </g>
    <g
       id="g8136">
      <g
         id="g8138"
         clip-path="url(#clipPath8140)">
        <path
           d="m 21,9 -6,0 0,1 6,0 0,-1 z m -8.576,0.075 -0.493,0.887 c -0.142,0.241 -0.262,0.493 -0.383,0.745 l -0.03,0 C 11.396,10.445 11.266,10.203 11.145,9.962 L 10.682,9.075 9,9.075 10.672,11.583 9.04,14 l 1.712,0 0.484,-0.826 c 0.141,-0.252 0.272,-0.493 0.403,-0.735 l 0.019,0 c 0.131,0.272 0.252,0.514 0.383,0.755 L 12.475,14 13.979,14 12.515,11.653 14,9.075 l -1.576,0 z M 19,20 19,26 8,26 8,6 l 16,0 0,14 -5,0 z"
           style="fill:#f0eff1;fill-opacity:1;fill-rule:nonzero;stroke:none"
           id="path8144" />
      </g>
    </g>
  </g>
</svg>
