<?xml version="1.0" encoding="UTF-8" standalone="no"?>
<svg
   xmlns:dc="http://purl.org/dc/elements/1.1/"
   xmlns:cc="http://creativecommons.org/ns#"
   xmlns:rdf="http://www.w3.org/1999/02/22-rdf-syntax-ns#"
   xmlns:svg="http://www.w3.org/2000/svg"
   xmlns="http://www.w3.org/2000/svg"
   version="1.1"
   id="svg2"
   viewBox="0 0 15.999999 15.999999"
   height="16"
   width="16">
  <defs
     id="defs4">
    <clipPath
       clipPathUnits="userSpaceOnUse"
       id="clipPath4164">
      <path
         d="M 0,32 32,32 32,0 0,0 0,32 Z"
         id="path4166" />
    </clipPath>
    <clipPath
       clipPathUnits="userSpaceOnUse"
       id="clipPath4176">
      <path
         d="M 0,32 32,32 32,0 0,0 0,32 Z"
         id="path4178" />
    </clipPath>
    <clipPath
       clipPathUnits="userSpaceOnUse"
       id="clipPath4188">
      <path
         d="M 0,32 32,32 32,0 0,0 0,32 Z"
         id="path4190" />
    </clipPath>
    <clipPath
       id="clipPath4166"
       clipPathUnits="userSpaceOnUse">
      <path
         id="path4168"
         d="M 0,32 32,32 32,0 0,0 0,32 Z" />
    </clipPath>
    <clipPath
       id="clipPath4178"
       clipPathUnits="userSpaceOnUse">
      <path
         id="path4180"
         d="M 0,32 32,32 32,0 0,0 0,32 Z" />
    </clipPath>
    <clipPath
       id="clipPath4219"
       clipPathUnits="userSpaceOnUse">
      <path
         id="path4221"
         d="M 0,32 32,32 32,0 0,0 0,32 Z" />
    </clipPath>
    <clipPath
       id="clipPath4231"
       clipPathUnits="userSpaceOnUse">
      <path
         id="path4233"
         d="M 0,32 32,32 32,0 0,0 0,32 Z" />
    </clipPath>
    <clipPath
       clipPathUnits="userSpaceOnUse"
       id="clipPath4164-3">
      <path
         d="M 0,32 32,32 32,0 0,0 0,32 Z"
         id="path4166-6" />
    </clipPath>
    <clipPath
       clipPathUnits="userSpaceOnUse"
       id="clipPath4176-8">
      <path
         d="M 0,32 32,32 32,0 0,0 0,32 Z"
         id="path4178-2" />
    </clipPath>
    <clipPath
       clipPathUnits="userSpaceOnUse"
       id="clipPath4188-7">
      <path
         d="M 0,32 32,32 32,0 0,0 0,32 Z"
         id="path4190-0" />
    </clipPath>
    <clipPath
       id="clipPath4164-6"
       clipPathUnits="userSpaceOnUse">
      <path
         id="path4166-8"
         d="M 0,32 32,32 32,0 0,0 0,32 Z" />
    </clipPath>
    <clipPath
       id="clipPath4176-0"
       clipPathUnits="userSpaceOnUse">
      <path
         id="path4178-5"
         d="M 0,32 32,32 32,0 0,0 0,32 Z" />
    </clipPath>
    <clipPath
       id="clipPath4188-2"
       clipPathUnits="userSpaceOnUse">
      <path
         id="path4190-7"
         d="M 0,32 32,32 32,0 0,0 0,32 Z" />
    </clipPath>
    <clipPath
       clipPathUnits="userSpaceOnUse"
       id="clipPath4166-7">
      <path
         d="M 0,32 32,32 32,0 0,0 0,32 Z"
         id="path4168-6" />
    </clipPath>
    <clipPath
       clipPathUnits="userSpaceOnUse"
       id="clipPath4178-1">
      <path
         d="M 0,32 32,32 32,0 0,0 0,32 Z"
         id="path4180-9" />
    </clipPath>
    <clipPath
       clipPathUnits="userSpaceOnUse"
       id="clipPath4219-2">
      <path
         d="M 0,32 32,32 32,0 0,0 0,32 Z"
         id="path4221-0" />
    </clipPath>
    <clipPath
       clipPathUnits="userSpaceOnUse"
       id="clipPath4231-8">
      <path
         d="M 0,32 32,32 32,0 0,0 0,32 Z"
         id="path4233-6" />
    </clipPath>
    <clipPath
       id="clipPath4164-8"
       clipPathUnits="userSpaceOnUse">
      <path
         id="path4166-7"
         d="M 0,32 32,32 32,0 0,0 0,32 Z" />
    </clipPath>
    <clipPath
       id="clipPath4176-3"
       clipPathUnits="userSpaceOnUse">
      <path
         id="path4178-4"
         d="M 0,32 32,32 32,0 0,0 0,32 Z" />
    </clipPath>
    <clipPath
       id="clipPath4188-5"
       clipPathUnits="userSpaceOnUse">
      <path
         id="path4190-73"
         d="M 0,32 32,32 32,0 0,0 0,32 Z" />
    </clipPath>
    <clipPath
       clipPathUnits="userSpaceOnUse"
       id="clipPath4166-8">
      <path
         d="M 0,32 32,32 32,0 0,0 0,32 Z"
         id="path4168-8" />
    </clipPath>
    <clipPath
       clipPathUnits="userSpaceOnUse"
       id="clipPath4178-5">
      <path
         d="M 0,32 32,32 32,0 0,0 0,32 Z"
         id="path4180-4" />
    </clipPath>
    <clipPath
       clipPathUnits="userSpaceOnUse"
       id="clipPath4219-6">
      <path
         d="M 0,32 32,32 32,0 0,0 0,32 Z"
         id="path4221-4" />
    </clipPath>
    <clipPath
       clipPathUnits="userSpaceOnUse"
       id="clipPath4231-9">
      <path
         d="M 0,32 32,32 32,0 0,0 0,32 Z"
         id="path4233-2" />
    </clipPath>
    <clipPath
       clipPathUnits="userSpaceOnUse"
       id="clipPath8132">
      <path
         d="M 0,16 16,16 16,0 0,0 0,16 Z"
         id="path8134-3" />
    </clipPath>
    <clipPath
       clipPathUnits="userSpaceOnUse"
       id="clipPath8144">
      <path
         d="M 0,16 16,16 16,0 0,0 0,16 Z"
         id="path8146" />
    </clipPath>
    <clipPath
       clipPathUnits="userSpaceOnUse"
       id="clipPath8185">
      <path
         d="M 0,16 16,16 16,0 0,0 0,16 Z"
         id="path8187" />
    </clipPath>
    <clipPath
       clipPathUnits="userSpaceOnUse"
       id="clipPath8197">
      <path
         d="M 0,16 16,16 16,0 0,0 0,16 Z"
         id="path8199" />
    </clipPath>
    <clipPath
       clipPathUnits="userSpaceOnUse"
       id="clipPath8232">
      <path
         d="M 0,16 16,16 16,0 0,0 0,16 Z"
         id="path8234" />
    </clipPath>
    <clipPath
       clipPathUnits="userSpaceOnUse"
       id="clipPath8240">
      <path
         d="M 0,16 16,16 16,0 0,0 0,16 Z"
         id="path8242" />
    </clipPath>
    <clipPath
       clipPathUnits="userSpaceOnUse"
       id="clipPath8254">
      <path
         d="M 0,16 16,16 16,0 0,0 0,16 Z"
         id="path8256" />
    </clipPath>
    <clipPath
       clipPathUnits="userSpaceOnUse"
       id="clipPath8266">
      <path
         d="M 0,16 16,16 16,0 0,0 0,16 Z"
         id="path8268" />
    </clipPath>
    <clipPath
       clipPathUnits="userSpaceOnUse"
       id="clipPath8312">
      <path
         d="M 0,32 32,32 32,0 0,0 0,32 Z"
         id="path8314" />
    </clipPath>
    <clipPath
       clipPathUnits="userSpaceOnUse"
       id="clipPath8324">
      <path
         d="M 0,32 32,32 32,0 0,0 0,32 Z"
         id="path8326" />
    </clipPath>
    <clipPath
       clipPathUnits="userSpaceOnUse"
       id="clipPath8344">
      <path
         d="M 0,32 32,32 32,0 0,0 0,32 Z"
         id="path8346" />
    </clipPath>
  </defs>
  <metadata
     id="metadata7">
    <rdf:RDF>
      <cc:Work
         rdf:about="">
        <dc:format>image/svg+xml</dc:format>
        <dc:type
           rdf:resource="http://purl.org/dc/dcmitype/StillImage" />
        <dc:title></dc:title>
      </cc:Work>
    </rdf:RDF>
  </metadata>
  <g
     id="g8306"
     transform="matrix(0.49999994,0,0,-0.49999994,0.07018635,16.033753)">
    <g
       id="g8308">
      <g
         id="g8310"
         clip-path="url(#clipPath8312)">
        <g
           id="g8316"
           transform="translate(18,32)">
          <path
             d="m 0,0 c -7.981,0 -14,-3.439 -14,-8 l 0,-13.14 c -2.406,-0.586 -4,-2.703 -4,-5.569 0,-3.395 1.937,-5.219 5.059,-5.244 L -4.121,-32 c 0.607,0 1.953,0.034 3.068,0.894 l 0.966,-0.163 c 1.018,-0.169 2.114,-0.256 3.257,-0.256 0.638,0 1.303,0.027 1.977,0.08 l 0.147,0.011 0.143,0.034 C 10.719,-30.19 14,-27.354 14,-24 l 0,16 C 14,-3.439 7.981,0 0,0"
             style="fill:#f6f6f6;fill-opacity:1;fill-rule:nonzero;stroke:none"
             id="path8318" />
        </g>
      </g>
    </g>
    <g
       id="g8320">
      <g
         id="g8322"
         clip-path="url(#clipPath8324)">
        <g
           id="g8328"
           transform="translate(17.9941,20)">
          <path
             d="M 0,0 C -6.104,0 -10,2.369 -10,4 -10,5.631 -6.104,8 0,8 6.104,8 10,5.631 10,4 10,2.369 6.104,0 0,0 m 0.006,10 c -6.627,0 -12,-2.686 -12,-6 l 0,-12.959 8.088,0.02 c 2.013,0 4.597,-1.062 4.597,-5.637 0,-1.129 -0.171,-2.012 -0.442,-2.72 1.314,-0.22 2.885,-0.302 4.747,-0.155 4.133,0.947 7.01,3.029 7.01,5.451 l 0,16 c 0,3.314 -5.373,6 -12,6"
             style="fill:#424242;fill-opacity:1;fill-rule:nonzero;stroke:none"
             id="path8330" />
        </g>
        <g
           id="g8332"
           transform="translate(11.7813,7.2393)">
          <path
             d="m 0,0 c -2.07,1.049 -2.434,1.802 -2.434,1.802 l -3.998,0 c -1.873,0 -3.37,-1.249 -3.37,-3.747 0,-2.496 1.243,-3.267 3.116,-3.267 l 0.94,-0.051 -1.061,2.07 -0.099,0 c -0.625,0 -0.774,0.624 -0.774,1.248 0,0.625 0.149,1.436 0.774,1.436 l 4.039,0.056 c 0,0 1.033,-0.332 1.658,-0.956 0.625,-0.624 0.949,-1.116 1.574,-0.492 C 0.99,-1.276 0.787,-0.399 0,0"
             style="fill:#424242;fill-opacity:1;fill-rule:nonzero;stroke:none"
             id="path8334" />
        </g>
        <g
           id="g8336"
           transform="translate(14.1113,8.9648)">
          <path
             d="m 0,0 -1.58,0.051 1.516,-2.341 -0.19,0 c 0.625,0 1.25,-0.624 1.25,-1.249 0,-0.625 -0.701,-1.344 -1.324,-1.344 L -4.088,-5.1 c 0,0 -1.139,0.403 -1.764,1.027 -0.625,0.624 -0.949,1.115 -1.574,0.491 -0.623,-0.625 -0.258,-1.276 0.365,-1.9 1.25,-1.248 2.557,-1.46 2.557,-1.46 l 4.25,0 c 1.873,0 2.809,0.906 2.809,3.403 C 2.555,-1.041 1.873,0 0,0"
             style="fill:#424242;fill-opacity:1;fill-rule:nonzero;stroke:none"
             id="path8338" />
        </g>
      </g>
    </g>
    <g
       id="g8340">
      <g
         id="g8342"
         clip-path="url(#clipPath8344)">
        <g
           id="g8348"
           transform="translate(17.9941,28)">
          <path
             d="m 0,0 c -6.104,0 -10,-2.369 -10,-4 0,-1.631 3.896,-4 10,-4 6.104,0 10,2.369 10,4 0,1.631 -3.896,4 -10,4"
             style="fill:#f0eff1;fill-opacity:1;fill-rule:nonzero;stroke:none"
             id="path8350" />
        </g>
      </g>
    </g>
  </g>
</svg>
