<?xml version="1.0" encoding="UTF-8" standalone="no"?>
<svg
   xmlns:dc="http://purl.org/dc/elements/1.1/"
   xmlns:cc="http://creativecommons.org/ns#"
   xmlns:rdf="http://www.w3.org/1999/02/22-rdf-syntax-ns#"
   xmlns:svg="http://www.w3.org/2000/svg"
   xmlns="http://www.w3.org/2000/svg"
   version="1.1"
   id="svg2"
   viewBox="0 0 15.999999 15.999999"
   height="16"
   width="16">
  <defs
     id="defs4">
    <clipPath
       clipPathUnits="userSpaceOnUse"
       id="clipPath4164">
      <path
         d="M 0,32 32,32 32,0 0,0 0,32 Z"
         id="path4166" />
    </clipPath>
    <clipPath
       clipPathUnits="userSpaceOnUse"
       id="clipPath4176">
      <path
         d="M 0,32 32,32 32,0 0,0 0,32 Z"
         id="path4178" />
    </clipPath>
    <clipPath
       clipPathUnits="userSpaceOnUse"
       id="clipPath4188">
      <path
         d="M 0,32 32,32 32,0 0,0 0,32 Z"
         id="path4190" />
    </clipPath>
    <clipPath
       id="clipPath4166"
       clipPathUnits="userSpaceOnUse">
      <path
         id="path4168"
         d="M 0,32 32,32 32,0 0,0 0,32 Z" />
    </clipPath>
    <clipPath
       id="clipPath4178"
       clipPathUnits="userSpaceOnUse">
      <path
         id="path4180"
         d="M 0,32 32,32 32,0 0,0 0,32 Z" />
    </clipPath>
    <clipPath
       id="clipPath4219"
       clipPathUnits="userSpaceOnUse">
      <path
         id="path4221"
         d="M 0,32 32,32 32,0 0,0 0,32 Z" />
    </clipPath>
    <clipPath
       id="clipPath4231"
       clipPathUnits="userSpaceOnUse">
      <path
         id="path4233"
         d="M 0,32 32,32 32,0 0,0 0,32 Z" />
    </clipPath>
    <clipPath
       clipPathUnits="userSpaceOnUse"
       id="clipPath4164-3">
      <path
         d="M 0,32 32,32 32,0 0,0 0,32 Z"
         id="path4166-6" />
    </clipPath>
    <clipPath
       clipPathUnits="userSpaceOnUse"
       id="clipPath4176-8">
      <path
         d="M 0,32 32,32 32,0 0,0 0,32 Z"
         id="path4178-2" />
    </clipPath>
    <clipPath
       clipPathUnits="userSpaceOnUse"
       id="clipPath4188-7">
      <path
         d="M 0,32 32,32 32,0 0,0 0,32 Z"
         id="path4190-0" />
    </clipPath>
    <clipPath
       id="clipPath4164-6"
       clipPathUnits="userSpaceOnUse">
      <path
         id="path4166-8"
         d="M 0,32 32,32 32,0 0,0 0,32 Z" />
    </clipPath>
    <clipPath
       id="clipPath4176-0"
       clipPathUnits="userSpaceOnUse">
      <path
         id="path4178-5"
         d="M 0,32 32,32 32,0 0,0 0,32 Z" />
    </clipPath>
    <clipPath
       id="clipPath4188-2"
       clipPathUnits="userSpaceOnUse">
      <path
         id="path4190-7"
         d="M 0,32 32,32 32,0 0,0 0,32 Z" />
    </clipPath>
    <clipPath
       clipPathUnits="userSpaceOnUse"
       id="clipPath4166-7">
      <path
         d="M 0,32 32,32 32,0 0,0 0,32 Z"
         id="path4168-6" />
    </clipPath>
    <clipPath
       clipPathUnits="userSpaceOnUse"
       id="clipPath4178-1">
      <path
         d="M 0,32 32,32 32,0 0,0 0,32 Z"
         id="path4180-9" />
    </clipPath>
    <clipPath
       clipPathUnits="userSpaceOnUse"
       id="clipPath4219-2">
      <path
         d="M 0,32 32,32 32,0 0,0 0,32 Z"
         id="path4221-0" />
    </clipPath>
    <clipPath
       clipPathUnits="userSpaceOnUse"
       id="clipPath4231-8">
      <path
         d="M 0,32 32,32 32,0 0,0 0,32 Z"
         id="path4233-6" />
    </clipPath>
    <clipPath
       id="clipPath4164-8"
       clipPathUnits="userSpaceOnUse">
      <path
         id="path4166-7"
         d="M 0,32 32,32 32,0 0,0 0,32 Z" />
    </clipPath>
    <clipPath
       id="clipPath4176-3"
       clipPathUnits="userSpaceOnUse">
      <path
         id="path4178-4"
         d="M 0,32 32,32 32,0 0,0 0,32 Z" />
    </clipPath>
    <clipPath
       id="clipPath4188-5"
       clipPathUnits="userSpaceOnUse">
      <path
         id="path4190-73"
         d="M 0,32 32,32 32,0 0,0 0,32 Z" />
    </clipPath>
    <clipPath
       clipPathUnits="userSpaceOnUse"
       id="clipPath4166-8">
      <path
         d="M 0,32 32,32 32,0 0,0 0,32 Z"
         id="path4168-8" />
    </clipPath>
    <clipPath
       clipPathUnits="userSpaceOnUse"
       id="clipPath4178-5">
      <path
         d="M 0,32 32,32 32,0 0,0 0,32 Z"
         id="path4180-4" />
    </clipPath>
    <clipPath
       clipPathUnits="userSpaceOnUse"
       id="clipPath4219-6">
      <path
         d="M 0,32 32,32 32,0 0,0 0,32 Z"
         id="path4221-4" />
    </clipPath>
    <clipPath
       clipPathUnits="userSpaceOnUse"
       id="clipPath4231-9">
      <path
         d="M 0,32 32,32 32,0 0,0 0,32 Z"
         id="path4233-2" />
    </clipPath>
    <clipPath
       clipPathUnits="userSpaceOnUse"
       id="clipPath8133">
      <path
         d="M 0,28 28,28 28,0 0,0 0,28 Z"
         id="path8135" />
    </clipPath>
    <clipPath
       clipPathUnits="userSpaceOnUse"
       id="clipPath8141">
      <path
         d="M 0,28 28,28 28,0 0,0 0,28 Z"
         id="path8143" />
    </clipPath>
    <clipPath
       clipPathUnits="userSpaceOnUse"
       id="clipPath8159">
      <path
         d="M 0,28 28,28 28,0 0,0 0,28 Z"
         id="path8161" />
    </clipPath>
    <clipPath
       clipPathUnits="userSpaceOnUse"
       id="clipPath8201">
      <path
         d="M 0,16 16,16 16,0 0,0 0,16 Z"
         id="path8203" />
    </clipPath>
    <clipPath
       clipPathUnits="userSpaceOnUse"
       id="clipPath8209">
      <path
         d="M 0,16 16,16 16,0 0,0 0,16 Z"
         id="path8211" />
    </clipPath>
    <clipPath
       clipPathUnits="userSpaceOnUse"
       id="clipPath8223">
      <path
         d="M 0,16 16,16 16,0 0,0 0,16 Z"
         id="path8225" />
    </clipPath>
    <clipPath
       clipPathUnits="userSpaceOnUse"
       id="clipPath8235">
      <path
         d="M 0,16 16,16 16,0 0,0 0,16 Z"
         id="path8237" />
    </clipPath>
    <clipPath
       clipPathUnits="userSpaceOnUse"
       id="clipPath8247">
      <path
         d="M 0,16 16,16 16,0 0,0 0,16 Z"
         id="path8249" />
    </clipPath>
  </defs>
  <metadata
     id="metadata7">
    <rdf:RDF>
      <cc:Work
         rdf:about="">
        <dc:format>image/svg+xml</dc:format>
        <dc:type
           rdf:resource="http://purl.org/dc/dcmitype/StillImage" />
        <dc:title></dc:title>
      </cc:Work>
    </rdf:RDF>
  </metadata>
  <g
     id="g8195"
     transform="matrix(0.99999988,0,0,-0.99999988,0.03325057,15.976822)">
    <g
       id="g8197">
      <g
         id="g8199"
         clip-path="url(#clipPath8201)">
        <g
           id="g8205">
          <g
             id="g8207" />
          <g
             id="g8213">
            <g
               clip-path="url(#clipPath8209)"
               id="g8215"
               style="opacity:0">
              <path
                 d="M 16,0 0,0 0,16 16,16 16,0 Z"
                 style="fill:#f6f6f6;fill-opacity:1;fill-rule:nonzero;stroke:none"
                 id="path8217" />
            </g>
          </g>
        </g>
      </g>
    </g>
    <g
       id="g8219">
      <g
         id="g8221"
         clip-path="url(#clipPath8223)">
        <g
           id="g8227"
           transform="translate(15,12)">
          <path
             d="m 0,0 0,-8 c 0,-2.28 -3.01,-4 -7,-4 -1.907,0 -3.585,0.396 -4.823,1.055 L -12.941,-12 -15,-12 l 1.523,2.428 c -0.129,0.183 -0.229,0.375 -0.311,0.572 l -1.212,0 0,1.236 1,2 0,5.764 c 0,2.28 3.01,4 7,4 3.99,0 7,-1.72 7,-4"
             style="fill:#f6f6f6;fill-opacity:1;fill-rule:nonzero;stroke:none"
             id="path8229" />
        </g>
      </g>
    </g>
    <g
       id="g8231">
      <g
         id="g8233"
         clip-path="url(#clipPath8235)">
        <g
           id="g8239"
           transform="translate(6,8)">
          <path
             d="m 0,0 -3,-3 3,0 -4,-4 1.5,3 -2.5,0 2,4 3,0 z m 1.997,2.125 c -2.931,0 -4.875,1.129 -4.875,1.875 0,0.747 1.944,1.875 4.875,1.875 C 4.928,5.875 6.872,4.747 6.872,4 6.872,3.254 4.928,2.125 1.997,2.125 M 2,7 C -1.313,7 -4,5.657 -4,4 L -4,0.236 -3.618,1 l 6.032,0 -3,-3 3,0 -4.46,-4.211 C -0.978,-6.699 0.439,-7 2,-7 c 3.313,0 6,1.343 6,3 L 8,4 C 8,5.657 5.313,7 2,7"
             style="fill:#424242;fill-opacity:1;fill-rule:nonzero;stroke:none"
             id="path8241" />
        </g>
      </g>
    </g>
    <g
       id="g8243">
      <g
         id="g8245"
         clip-path="url(#clipPath8247)">
        <g
           id="g8251"
           transform="translate(12.8721,12)">
          <path
             d="m 0,0 c 0,-0.746 -1.944,-1.875 -4.875,-1.875 -2.931,0 -4.875,1.129 -4.875,1.875 0,0.747 1.944,1.875 4.875,1.875 C -1.944,1.875 0,0.747 0,0"
             style="fill:#f0eff1;fill-opacity:1;fill-rule:nonzero;stroke:none"
             id="path8253" />
        </g>
      </g>
    </g>
  </g>
</svg>
