<?xml version="1.0" encoding="UTF-8" standalone="no"?>
<svg
   xmlns:dc="http://purl.org/dc/elements/1.1/"
   xmlns:cc="http://creativecommons.org/ns#"
   xmlns:rdf="http://www.w3.org/1999/02/22-rdf-syntax-ns#"
   xmlns:svg="http://www.w3.org/2000/svg"
   xmlns="http://www.w3.org/2000/svg"
   version="1.1"
   id="svg2"
   viewBox="0 0 15.999999 15.999999"
   height="16"
   width="16">
  <defs
     id="defs4">
    <clipPath
       clipPathUnits="userSpaceOnUse"
       id="clipPath4164">
      <path
         d="M 0,32 32,32 32,0 0,0 0,32 Z"
         id="path4166" />
    </clipPath>
    <clipPath
       clipPathUnits="userSpaceOnUse"
       id="clipPath4176">
      <path
         d="M 0,32 32,32 32,0 0,0 0,32 Z"
         id="path4178" />
    </clipPath>
    <clipPath
       clipPathUnits="userSpaceOnUse"
       id="clipPath4188">
      <path
         d="M 0,32 32,32 32,0 0,0 0,32 Z"
         id="path4190" />
    </clipPath>
    <clipPath
       id="clipPath4166"
       clipPathUnits="userSpaceOnUse">
      <path
         id="path4168"
         d="M 0,32 32,32 32,0 0,0 0,32 Z" />
    </clipPath>
    <clipPath
       id="clipPath4178"
       clipPathUnits="userSpaceOnUse">
      <path
         id="path4180"
         d="M 0,32 32,32 32,0 0,0 0,32 Z" />
    </clipPath>
    <clipPath
       id="clipPath4219"
       clipPathUnits="userSpaceOnUse">
      <path
         id="path4221"
         d="M 0,32 32,32 32,0 0,0 0,32 Z" />
    </clipPath>
    <clipPath
       id="clipPath4231"
       clipPathUnits="userSpaceOnUse">
      <path
         id="path4233"
         d="M 0,32 32,32 32,0 0,0 0,32 Z" />
    </clipPath>
    <clipPath
       clipPathUnits="userSpaceOnUse"
       id="clipPath8109">
      <path
         d="M 0,32 32,32 32,0 0,0 0,32 Z"
         id="path8111" />
    </clipPath>
    <clipPath
       clipPathUnits="userSpaceOnUse"
       id="clipPath8121">
      <path
         d="M 0,32 32,32 32,0 0,0 0,32 Z"
         id="path8123" />
    </clipPath>
    <clipPath
       clipPathUnits="userSpaceOnUse"
       id="clipPath8141">
      <path
         d="M 0,32 32,32 32,0 0,0 0,32 Z"
         id="path8143" />
    </clipPath>
  </defs>
  <metadata
     id="metadata7">
    <rdf:RDF>
      <cc:Work
         rdf:about="">
        <dc:format>image/svg+xml</dc:format>
        <dc:type
           rdf:resource="http://purl.org/dc/dcmitype/StillImage" />
        <dc:title></dc:title>
      </cc:Work>
    </rdf:RDF>
  </metadata>
  <g
     id="g8109"
     transform="matrix(0.5714285,0,0,-0.5714285,-1.3512203,17.198985)">
    <g
       id="g8111"
       transform="translate(29.0195,7)">
      <path
         d="m 0,0 -8,0 0,-5 -17.02,0 0,9.981 9.02,0 L -16,23 0,23 0,0 Z"
         style="fill:#f6f6f6;fill-opacity:1;fill-rule:nonzero;stroke:none"
         id="path8113" />
    </g>
    <path
       d="m 18.038,5 -1,0 0,4 1,0 0,-4 z m -1.999,0 -3,0 0,4 3,0 0,-4 z m -4,0 -1,0 0,4 1,0 0,-4 z m -2,0 -3,0 0,4 3,0 0,-4 z M 6.02,4 l 13,0 0,6 -13,0 0,-6 z m 3.019,2 -1,0 0,2 1,0 0,-2 z m 6,0 -1,0 0,2 1,0 0,-2 z m 9.981,15 -8,0 0,3 8,0 0,-3 z m 0,-5 -8,0 0,3 8,0 0,-3 z m -10,12 0,-16 2,0 0,2 8,0 0,-3 -4.02,0 0,-2 6.02,0 0,19 -12,0 z"
       style="fill:#424242;fill-opacity:1;fill-rule:nonzero;stroke:none"
       id="path8115-3" />
    <path
       d="m 17.02,19 8,0 0,-3 -8,0 0,3 z m 8,2 -8,0 0,3 8,0 0,-3 z m -8,-7 8,0 0,-3 -4.02,0 0,1 -3.98,0 0,2 z m 1,-9 -1,0 0,4 1,0 0,-4 z m -7,4 1,0 0,-4 -1,0 0,4 z m 3,-1 1,0 0,-2 -1,0 0,2 z m -1,-3 3,0 0,4 -3,0 0,-4 z m -5,3 1,0 0,-2 -1,0 0,2 z m -1,-3 3,0 0,4 -3,0 0,-4 z"
       style="fill:#f0eff1;fill-opacity:1;fill-rule:nonzero;stroke:none"
       id="path8117" />
  </g>
</svg>
