<?xml version="1.0" encoding="UTF-8" standalone="no"?>
<svg
   xmlns:dc="http://purl.org/dc/elements/1.1/"
   xmlns:cc="http://creativecommons.org/ns#"
   xmlns:rdf="http://www.w3.org/1999/02/22-rdf-syntax-ns#"
   xmlns:svg="http://www.w3.org/2000/svg"
   xmlns="http://www.w3.org/2000/svg"
   version="1.1"
   id="svg2"
   viewBox="0 0 15.999999 15.999999"
   height="16"
   width="16">
  <defs
     id="defs4">
    <clipPath
       clipPathUnits="userSpaceOnUse"
       id="clipPath4164">
      <path
         d="M 0,32 32,32 32,0 0,0 0,32 Z"
         id="path4166" />
    </clipPath>
    <clipPath
       clipPathUnits="userSpaceOnUse"
       id="clipPath4176">
      <path
         d="M 0,32 32,32 32,0 0,0 0,32 Z"
         id="path4178" />
    </clipPath>
    <clipPath
       clipPathUnits="userSpaceOnUse"
       id="clipPath4188">
      <path
         d="M 0,32 32,32 32,0 0,0 0,32 Z"
         id="path4190" />
    </clipPath>
    <clipPath
       id="clipPath4166"
       clipPathUnits="userSpaceOnUse">
      <path
         id="path4168"
         d="M 0,32 32,32 32,0 0,0 0,32 Z" />
    </clipPath>
    <clipPath
       id="clipPath4178"
       clipPathUnits="userSpaceOnUse">
      <path
         id="path4180"
         d="M 0,32 32,32 32,0 0,0 0,32 Z" />
    </clipPath>
    <clipPath
       id="clipPath4219"
       clipPathUnits="userSpaceOnUse">
      <path
         id="path4221"
         d="M 0,32 32,32 32,0 0,0 0,32 Z" />
    </clipPath>
    <clipPath
       id="clipPath4231"
       clipPathUnits="userSpaceOnUse">
      <path
         id="path4233"
         d="M 0,32 32,32 32,0 0,0 0,32 Z" />
    </clipPath>
    <clipPath
       clipPathUnits="userSpaceOnUse"
       id="clipPath4164-3">
      <path
         d="M 0,32 32,32 32,0 0,0 0,32 Z"
         id="path4166-6" />
    </clipPath>
    <clipPath
       clipPathUnits="userSpaceOnUse"
       id="clipPath4176-8">
      <path
         d="M 0,32 32,32 32,0 0,0 0,32 Z"
         id="path4178-2" />
    </clipPath>
    <clipPath
       clipPathUnits="userSpaceOnUse"
       id="clipPath4188-7">
      <path
         d="M 0,32 32,32 32,0 0,0 0,32 Z"
         id="path4190-0" />
    </clipPath>
    <clipPath
       id="clipPath4164-6"
       clipPathUnits="userSpaceOnUse">
      <path
         id="path4166-8"
         d="M 0,32 32,32 32,0 0,0 0,32 Z" />
    </clipPath>
    <clipPath
       id="clipPath4176-0"
       clipPathUnits="userSpaceOnUse">
      <path
         id="path4178-5"
         d="M 0,32 32,32 32,0 0,0 0,32 Z" />
    </clipPath>
    <clipPath
       id="clipPath4188-2"
       clipPathUnits="userSpaceOnUse">
      <path
         id="path4190-7"
         d="M 0,32 32,32 32,0 0,0 0,32 Z" />
    </clipPath>
    <clipPath
       clipPathUnits="userSpaceOnUse"
       id="clipPath4166-7">
      <path
         d="M 0,32 32,32 32,0 0,0 0,32 Z"
         id="path4168-6" />
    </clipPath>
    <clipPath
       clipPathUnits="userSpaceOnUse"
       id="clipPath4178-1">
      <path
         d="M 0,32 32,32 32,0 0,0 0,32 Z"
         id="path4180-9" />
    </clipPath>
    <clipPath
       clipPathUnits="userSpaceOnUse"
       id="clipPath4219-2">
      <path
         d="M 0,32 32,32 32,0 0,0 0,32 Z"
         id="path4221-0" />
    </clipPath>
    <clipPath
       clipPathUnits="userSpaceOnUse"
       id="clipPath4231-8">
      <path
         d="M 0,32 32,32 32,0 0,0 0,32 Z"
         id="path4233-6" />
    </clipPath>
    <clipPath
       id="clipPath4164-8"
       clipPathUnits="userSpaceOnUse">
      <path
         id="path4166-7"
         d="M 0,32 32,32 32,0 0,0 0,32 Z" />
    </clipPath>
    <clipPath
       id="clipPath4176-3"
       clipPathUnits="userSpaceOnUse">
      <path
         id="path4178-4"
         d="M 0,32 32,32 32,0 0,0 0,32 Z" />
    </clipPath>
    <clipPath
       id="clipPath4188-5"
       clipPathUnits="userSpaceOnUse">
      <path
         id="path4190-73"
         d="M 0,32 32,32 32,0 0,0 0,32 Z" />
    </clipPath>
    <clipPath
       clipPathUnits="userSpaceOnUse"
       id="clipPath4166-8">
      <path
         d="M 0,32 32,32 32,0 0,0 0,32 Z"
         id="path4168-8" />
    </clipPath>
    <clipPath
       clipPathUnits="userSpaceOnUse"
       id="clipPath4178-5">
      <path
         d="M 0,32 32,32 32,0 0,0 0,32 Z"
         id="path4180-4" />
    </clipPath>
    <clipPath
       clipPathUnits="userSpaceOnUse"
       id="clipPath4219-6">
      <path
         d="M 0,32 32,32 32,0 0,0 0,32 Z"
         id="path4221-4" />
    </clipPath>
    <clipPath
       clipPathUnits="userSpaceOnUse"
       id="clipPath4231-9">
      <path
         d="M 0,32 32,32 32,0 0,0 0,32 Z"
         id="path4233-2" />
    </clipPath>
  </defs>
  <metadata
     id="metadata7">
    <rdf:RDF>
      <cc:Work
         rdf:about="">
        <dc:format>image/svg+xml</dc:format>
        <dc:type
           rdf:resource="http://purl.org/dc/dcmitype/StillImage" />
        <dc:title></dc:title>
      </cc:Work>
    </rdf:RDF>
  </metadata>
  <g
     id="g8136"
     transform="matrix(0.49999994,0,0,-0.49999994,-0.14393829,16.002847)">
    <g
       id="g8138"
       transform="translate(12.7638,32.0004)">
      <path
         d="m 0,0 -8.764,-17.527 0,-2.474 6.743,0 -4.742,-9.531 0,-2.468 4.827,0 17.172,17.172 0,2.827 -9.172,0 9.172,9.172 0,2.829 L 0,0 Z"
         style="fill:#f6f6f6;fill-opacity:1;fill-rule:nonzero;stroke:none"
         id="path8140" />
    </g>
    <g
       id="g8142"
       transform="translate(26,30)">
      <path
         d="m 0,0 -12,0 -8,-16 7.971,0 -5.971,-12 2,0 16,16 -12,0 12,12 z"
         style="fill:#424242;fill-opacity:1;fill-rule:nonzero;stroke:none"
         id="path8144" />
    </g>
  </g>
</svg>
