<?xml version="1.0" encoding="UTF-8" standalone="no"?>
<svg
   xmlns:dc="http://purl.org/dc/elements/1.1/"
   xmlns:cc="http://creativecommons.org/ns#"
   xmlns:rdf="http://www.w3.org/1999/02/22-rdf-syntax-ns#"
   xmlns:svg="http://www.w3.org/2000/svg"
   xmlns="http://www.w3.org/2000/svg"
   version="1.1"
   id="svg2"
   viewBox="0 0 15.999999 15.999999"
   height="16"
   width="16">
  <defs
     id="defs4">
    <clipPath
       clipPathUnits="userSpaceOnUse"
       id="clipPath4164">
      <path
         d="M 0,32 32,32 32,0 0,0 0,32 Z"
         id="path4166" />
    </clipPath>
    <clipPath
       clipPathUnits="userSpaceOnUse"
       id="clipPath4176">
      <path
         d="M 0,32 32,32 32,0 0,0 0,32 Z"
         id="path4178" />
    </clipPath>
    <clipPath
       clipPathUnits="userSpaceOnUse"
       id="clipPath4188">
      <path
         d="M 0,32 32,32 32,0 0,0 0,32 Z"
         id="path4190" />
    </clipPath>
    <clipPath
       id="clipPath4166"
       clipPathUnits="userSpaceOnUse">
      <path
         id="path4168"
         d="M 0,32 32,32 32,0 0,0 0,32 Z" />
    </clipPath>
    <clipPath
       id="clipPath4178"
       clipPathUnits="userSpaceOnUse">
      <path
         id="path4180"
         d="M 0,32 32,32 32,0 0,0 0,32 Z" />
    </clipPath>
    <clipPath
       id="clipPath4219"
       clipPathUnits="userSpaceOnUse">
      <path
         id="path4221"
         d="M 0,32 32,32 32,0 0,0 0,32 Z" />
    </clipPath>
    <clipPath
       id="clipPath4231"
       clipPathUnits="userSpaceOnUse">
      <path
         id="path4233"
         d="M 0,32 32,32 32,0 0,0 0,32 Z" />
    </clipPath>
  </defs>
  <metadata
     id="metadata7">
    <rdf:RDF>
      <cc:Work
         rdf:about="">
        <dc:format>image/svg+xml</dc:format>
        <dc:type
           rdf:resource="http://purl.org/dc/dcmitype/StillImage" />
        <dc:title></dc:title>
      </cc:Work>
    </rdf:RDF>
  </metadata>
  <g
     transform="matrix(0.61538454,0,0,-0.61538454,-1.8588047,18.197684)"
     id="g4213">
    <g
       id="g4215">
      <g
         clip-path="url(#clipPath4219)"
         id="g4217">
        <g
           transform="translate(6.5449,5)"
           id="g4223">
          <path
             id="path4225"
             style="fill:#f6f6f6;fill-opacity:1;fill-rule:nonzero;stroke:none"
             d="m 0,0 c -1.988,0 -3.545,1.521 -3.545,3.465 l 0,11.914 C -3.545,17.376 -1.955,19 0,19 l 5.192,0 2.037,4 10.226,0 2,0 c 1,0 3,-1.829 3,-3.899 l 0,-15.636 C 22.455,1.555 20.763,0 18.683,0 L 0,0 Z" />
        </g>
      </g>
    </g>
    <g
       id="g4227">
      <g
         clip-path="url(#clipPath4231)"
         id="g4229">
        <g
           transform="translate(16,24)"
           id="g4235">
          <path
             id="path4237"
             style="fill:#dcb67a;fill-opacity:1;fill-rule:nonzero;stroke:none"
             d="M 0,0 9,0 9,-2 5.228,-2 -0.961,-2 0,0 Z M 9.398,2 -1,2 -3.037,-2 -9.455,-2 C -10.308,-2 -11,-2.726 -11,-3.621 l 0,-11.914 c 0,-0.896 0.691,-1.465 1.545,-1.465 l 18.683,0 c 0.853,0 1.772,0.569 1.772,1.465 L 11,0.101 C 11,1.138 9.398,2 9.398,2" />
        </g>
      </g>
    </g>
    <g
       transform="translate(16,24)"
       id="g4239">
      <path
         id="path4241"
         style="fill:#f0eff1;fill-opacity:1;fill-rule:nonzero;stroke:none"
         d="M 0,0 9,0 9,-2 -0.961,-2 0,0 Z" />
    </g>
  </g>
</svg>
