<?xml version="1.0" encoding="UTF-8" standalone="no"?>
<svg
   xmlns:dc="http://purl.org/dc/elements/1.1/"
   xmlns:cc="http://creativecommons.org/ns#"
   xmlns:rdf="http://www.w3.org/1999/02/22-rdf-syntax-ns#"
   xmlns:svg="http://www.w3.org/2000/svg"
   xmlns="http://www.w3.org/2000/svg"
   version="1.1"
   id="svg2"
   viewBox="0 0 15.999999 15.999999"
   height="16"
   width="16">
  <defs
     id="defs4">
    <clipPath
       clipPathUnits="userSpaceOnUse"
       id="clipPath4164">
      <path
         d="M 0,32 32,32 32,0 0,0 0,32 Z"
         id="path4166" />
    </clipPath>
    <clipPath
       clipPathUnits="userSpaceOnUse"
       id="clipPath4176">
      <path
         d="M 0,32 32,32 32,0 0,0 0,32 Z"
         id="path4178" />
    </clipPath>
    <clipPath
       clipPathUnits="userSpaceOnUse"
       id="clipPath4188">
      <path
         d="M 0,32 32,32 32,0 0,0 0,32 Z"
         id="path4190" />
    </clipPath>
    <clipPath
       id="clipPath4166"
       clipPathUnits="userSpaceOnUse">
      <path
         id="path4168"
         d="M 0,32 32,32 32,0 0,0 0,32 Z" />
    </clipPath>
    <clipPath
       id="clipPath4178"
       clipPathUnits="userSpaceOnUse">
      <path
         id="path4180"
         d="M 0,32 32,32 32,0 0,0 0,32 Z" />
    </clipPath>
    <clipPath
       id="clipPath4219"
       clipPathUnits="userSpaceOnUse">
      <path
         id="path4221"
         d="M 0,32 32,32 32,0 0,0 0,32 Z" />
    </clipPath>
    <clipPath
       id="clipPath4231"
       clipPathUnits="userSpaceOnUse">
      <path
         id="path4233"
         d="M 0,32 32,32 32,0 0,0 0,32 Z" />
    </clipPath>
    <clipPath
       clipPathUnits="userSpaceOnUse"
       id="clipPath4167">
      <path
         d="M 0,32 32,32 32,0 0,0 0,32 Z"
         id="path4169" />
    </clipPath>
    <clipPath
       clipPathUnits="userSpaceOnUse"
       id="clipPath4179">
      <path
         d="M 0,32 32,32 32,0 0,0 0,32 Z"
         id="path4181" />
    </clipPath>
    <clipPath
       clipPathUnits="userSpaceOnUse"
       id="clipPath4223">
      <path
         d="M 0,32 32,32 32,0 0,0 0,32 Z"
         id="path4225" />
    </clipPath>
    <clipPath
       clipPathUnits="userSpaceOnUse"
       id="clipPath8141">
      <path
         d="M 0,32 32,32 32,0 0,0 0,32 Z"
         id="path8143" />
    </clipPath>
    <clipPath
       clipPathUnits="userSpaceOnUse"
       id="clipPath8153">
      <path
         d="M 0,32 32,32 32,0 0,0 0,32 Z"
         id="path8155" />
    </clipPath>
  </defs>
  <metadata
     id="metadata7">
    <rdf:RDF>
      <cc:Work
         rdf:about="">
        <dc:format>image/svg+xml</dc:format>
        <dc:type
           rdf:resource="http://purl.org/dc/dcmitype/StillImage" />
        <dc:title></dc:title>
      </cc:Work>
    </rdf:RDF>
  </metadata>
  <g
     id="g8135"
     transform="matrix(0.49999994,0,0,-0.49999994,0.06326106,16.082645)">
    <g
       id="g8137">
      <g
         id="g8139"
         clip-path="url(#clipPath8141)">
        <g
           id="g8145"
           transform="translate(32,32)">
          <path
             d="m 0,0 -26,0 0,-14.523 c -3.493,-1.237 -6,-4.56 -6,-8.477 0,-4.971 4.029,-9 9,-9 2.662,0 5.047,1.163 6.695,3 L 0,-29 0,0 Z"
             style="fill:#f6f6f6;fill-opacity:1;fill-rule:nonzero;stroke:none"
             id="path8147" />
        </g>
      </g>
    </g>
    <g
       id="g8149">
      <g
         id="g8151"
         clip-path="url(#clipPath8153)">
        <g
           id="g8157"
           transform="translate(17.0537,5)">
          <path
             d="m 0,0 12.946,0 0,4 -12,0 C 0.946,2.562 0.601,1.206 0,0"
             style="fill:#424242;fill-opacity:1;fill-rule:nonzero;stroke:none"
             id="path8159" />
        </g>
        <g
           id="g8161"
           transform="translate(17.4766,12)">
          <path
             d="m 0,0 12.523,0 0,4 -15.348,0 C -1.544,2.965 -0.56,1.583 0,0"
             style="fill:#424242;fill-opacity:1;fill-rule:nonzero;stroke:none"
             id="path8163" />
        </g>
        <path
           d="m 8,26 22,0 0,4 -22,0 0,-4 z"
           style="fill:#424242;fill-opacity:1;fill-rule:nonzero;stroke:none"
           id="path8165" />
        <path
           d="m 8,19 22,0 0,4 -22,0 0,-4 z"
           style="fill:#424242;fill-opacity:1;fill-rule:nonzero;stroke:none"
           id="path8167" />
        <path
           d="M 14,8 4,8 4,10 14,10 14,8 Z M 9,16 C 5.135,16 2,12.865 2,9 2,5.135 5.135,2 9,2 c 3.865,0 7,3.135 7,7 0,3.865 -3.135,7 -7,7"
           style="fill:#424242;fill-opacity:1;fill-rule:nonzero;stroke:none"
           id="path8169" />
      </g>
    </g>
    <path
       d="M 14,8 4,8 4,10 14,10 14,8 Z"
       style="fill:#f0eff1;fill-opacity:1;fill-rule:nonzero;stroke:none"
       id="path8171" />
  </g>
</svg>
