<?xml version="1.0" encoding="UTF-8" standalone="no"?>
<svg
   xmlns:dc="http://purl.org/dc/elements/1.1/"
   xmlns:cc="http://creativecommons.org/ns#"
   xmlns:rdf="http://www.w3.org/1999/02/22-rdf-syntax-ns#"
   xmlns:svg="http://www.w3.org/2000/svg"
   xmlns="http://www.w3.org/2000/svg"
   version="1.1"
   id="svg2"
   viewBox="0 0 15.999999 15.999999"
   height="16"
   width="16">
  <defs
     id="defs4">
    <clipPath
       clipPathUnits="userSpaceOnUse"
       id="clipPath4164">
      <path
         d="M 0,32 32,32 32,0 0,0 0,32 Z"
         id="path4166" />
    </clipPath>
    <clipPath
       clipPathUnits="userSpaceOnUse"
       id="clipPath4176">
      <path
         d="M 0,32 32,32 32,0 0,0 0,32 Z"
         id="path4178" />
    </clipPath>
    <clipPath
       clipPathUnits="userSpaceOnUse"
       id="clipPath4188">
      <path
         d="M 0,32 32,32 32,0 0,0 0,32 Z"
         id="path4190" />
    </clipPath>
    <clipPath
       id="clipPath4166"
       clipPathUnits="userSpaceOnUse">
      <path
         id="path4168"
         d="M 0,32 32,32 32,0 0,0 0,32 Z" />
    </clipPath>
    <clipPath
       id="clipPath4178"
       clipPathUnits="userSpaceOnUse">
      <path
         id="path4180"
         d="M 0,32 32,32 32,0 0,0 0,32 Z" />
    </clipPath>
    <clipPath
       id="clipPath4219"
       clipPathUnits="userSpaceOnUse">
      <path
         id="path4221"
         d="M 0,32 32,32 32,0 0,0 0,32 Z" />
    </clipPath>
    <clipPath
       id="clipPath4231"
       clipPathUnits="userSpaceOnUse">
      <path
         id="path4233"
         d="M 0,32 32,32 32,0 0,0 0,32 Z" />
    </clipPath>
    <clipPath
       clipPathUnits="userSpaceOnUse"
       id="clipPath4167">
      <path
         d="M 0,32 32,32 32,0 0,0 0,32 Z"
         id="path4169" />
    </clipPath>
    <clipPath
       clipPathUnits="userSpaceOnUse"
       id="clipPath4179">
      <path
         d="M 0,32 32,32 32,0 0,0 0,32 Z"
         id="path4181" />
    </clipPath>
  </defs>
  <metadata
     id="metadata7">
    <rdf:RDF>
      <cc:Work
         rdf:about="">
        <dc:format>image/svg+xml</dc:format>
        <dc:type
           rdf:resource="http://purl.org/dc/dcmitype/StillImage" />
        <dc:title></dc:title>
      </cc:Work>
    </rdf:RDF>
  </metadata>
  <g
     id="g4161"
     transform="matrix(0.50000307,0,0,-0.50000307,0.00512783,15.965404)">
    <g
       id="g4163">
      <g
         id="g4165"
         clip-path="url(#clipPath4167)">
        <g
           id="g4171"
           transform="translate(26.9082,14.1563)">
          <path
             d="m 0,0 c -0.192,0.494 -0.446,1.211 -0.767,2.244 0.383,0.582 0.621,0.842 0.734,0.947 C 0.026,3.178 0.092,3.16 0.162,3.141 0.715,2.992 1.213,2.92 1.686,2.92 c 0.929,0 1.762,0.338 2.416,0.984 0.647,0.645 0.99,1.491 0.99,2.446 0,1.246 -0.544,2.043 -1.007,2.496 C 3.636,9.285 2.828,9.807 1.535,9.807 0.764,9.807 0.027,9.627 -0.642,9.277 -1.251,8.965 -1.89,8.426 -2.641,7.596 -2.877,8.049 -3.137,8.488 -3.42,8.914 L -4.136,9.99 -5.021,9.844 c 0.388,0.472 0.775,1.193 0.775,2.256 0,1.107 -0.471,2.103 -1.328,2.806 -0.772,0.631 -1.809,0.938 -3.17,0.938 -1.775,0 -3.407,-0.508 -4.854,-1.51 -1.374,-0.953 -2.606,-2.418 -3.769,-4.48 -0.109,-0.192 -0.193,-0.317 -0.249,-0.393 -0.09,-0.01 -0.232,-0.02 -0.442,-0.02 -0.003,0 -1.529,0.022 -1.529,0.022 l -1.631,-5.559 1.969,0 -2.115,-7.963 c -0.186,-0.687 -0.333,-1.218 -0.45,-1.627 -0.384,0.166 -0.865,0.286 -1.456,0.286 -1.227,0 -2.038,-0.481 -2.509,-0.891 -0.728,-0.641 -1.129,-1.506 -1.129,-2.436 0,-1 0.467,-1.916 1.318,-2.582 0.733,-0.57 1.693,-0.847 2.935,-0.847 1.613,0 3.079,0.418 4.36,1.248 1.227,0.799 2.287,1.998 3.151,3.564 0.371,0.67 0.737,1.52 1.102,2.526 0.172,-0.354 0.396,-0.68 0.691,-0.961 0.453,-0.43 1.254,-0.944 2.504,-0.944 0.743,0 1.455,0.155 2.11,0.453 0.63,0.288 1.294,0.788 2.089,1.575 0.147,0.144 0.304,0.308 0.473,0.488 0.45,-0.803 1.001,-1.416 1.635,-1.822 0.712,-0.461 1.566,-0.694 2.54,-0.694 0.971,0 1.928,0.315 2.826,0.924 1.006,0.668 1.962,1.717 2.923,3.205 L 4.9,-0.811 1.021,1.377 0,0 Z"
             style="fill:#f6f6f6;fill-opacity:1;fill-rule:nonzero;stroke:none"
             id="path4173" />
        </g>
      </g>
    </g>
    <g
       id="g4175">
      <g
         id="g4177"
         clip-path="url(#clipPath4179)">
        <g
           id="g4183"
           transform="translate(16.1982,21.5977)">
          <path
             d="m 0,0 -1.979,0 c 0.564,2.211 1.31,3.83 2.238,4.854 0.564,0.638 1.115,0.959 1.652,0.959 0.11,0 0.198,-0.034 0.266,-0.092 C 2.245,5.658 2.279,5.58 2.279,5.484 2.279,5.396 2.204,5.23 2.055,4.986 1.904,4.74 1.829,4.508 1.829,4.289 1.829,3.984 1.947,3.723 2.184,3.502 2.421,3.283 2.721,3.174 3.085,3.174 c 0.392,0 0.719,0.135 0.983,0.4 0.264,0.268 0.396,0.627 0.396,1.084 0,0.516 -0.198,0.934 -0.594,1.258 C 3.474,6.24 2.839,6.402 1.966,6.402 0.601,6.402 -0.638,6.018 -1.748,5.248 -2.858,4.479 -3.914,3.205 -4.915,1.43 -5.261,0.816 -5.589,0.424 -5.897,0.248 -6.207,0.074 -6.703,-0.01 -7.386,0 l -0.451,-1.537 1.899,0 -2.786,-10.484 c -0.464,-1.723 -0.778,-2.786 -0.942,-3.188 -0.236,-0.586 -0.596,-1.084 -1.078,-1.496 -0.192,-0.166 -0.424,-0.25 -0.696,-0.25 -0.074,0 -0.137,0.021 -0.192,0.066 l -0.068,0.092 c 0,0.043 0.068,0.133 0.205,0.27 0.137,0.134 0.205,0.341 0.205,0.621 0,0.306 -0.109,0.56 -0.328,0.763 -0.219,0.2 -0.532,0.301 -0.942,0.301 -0.492,0 -0.887,-0.131 -1.188,-0.392 -0.3,-0.264 -0.45,-0.575 -0.45,-0.934 0,-0.383 0.181,-0.719 0.546,-1.004 0.364,-0.283 0.932,-0.426 1.707,-0.426 1.228,0 2.318,0.309 3.269,0.924 0.951,0.619 1.781,1.569 2.491,2.856 0.71,1.285 1.438,3.359 2.185,6.22 l 1.597,6.061 1.924,0 L 0,0 Z"
             style="fill:#424242;fill-opacity:1;fill-rule:nonzero;stroke:none"
             id="path4185" />
        </g>
        <g
           id="g4187"
           transform="translate(25.7129,18.9844)">
          <path
             d="M 0,0 C 0.347,0.264 0.71,0.395 1.093,0.395 1.238,0.395 1.5,0.344 1.878,0.244 2.255,0.143 2.59,0.092 2.881,0.092 c 0.4,0 0.735,0.135 1.004,0.4 0.268,0.268 0.402,0.61 0.402,1.029 0,0.448 -0.134,0.801 -0.402,1.065 C 3.616,2.848 3.231,2.979 2.73,2.979 2.285,2.979 1.864,2.877 1.468,2.67 1.072,2.467 0.569,2.023 -0.041,1.338 c -0.454,-0.506 -1.128,-1.395 -2.02,-2.662 -0.355,1.566 -0.964,3 -1.83,4.303 L -8.655,2.193 -8.75,1.695 c 0.354,0.069 0.655,0.104 0.9,0.104 0.474,0 0.866,-0.197 1.174,-0.59 0.492,-0.613 1.175,-2.477 2.048,-5.592 -0.683,-0.883 -1.151,-1.461 -1.406,-1.732 -0.418,-0.436 -0.764,-0.721 -1.037,-0.852 -0.209,-0.103 -0.447,-0.158 -0.71,-0.158 -0.2,0 -0.528,0.105 -0.983,0.316 -0.309,0.139 -0.588,0.209 -0.833,0.209 -0.464,0 -0.846,-0.142 -1.146,-0.433 -0.301,-0.287 -0.451,-0.656 -0.451,-1.102 0,-0.42 0.138,-0.76 0.417,-1.023 0.277,-0.264 0.652,-0.393 1.126,-0.393 0.455,0 0.882,0.092 1.283,0.276 0.4,0.181 0.903,0.574 1.509,1.173 0.604,0.598 1.44,1.551 2.505,2.854 0.409,-1.242 0.764,-2.145 1.064,-2.709 0.301,-0.564 0.644,-0.973 1.031,-1.221 0.387,-0.25 0.871,-0.373 1.454,-0.373 0.564,0 1.138,0.196 1.72,0.59 0.765,0.508 1.547,1.381 2.349,2.623 L 2.771,-6.061 C 2.226,-6.797 1.82,-7.256 1.557,-7.439 1.384,-7.553 1.179,-7.609 0.942,-7.609 c -0.282,0 -0.559,0.17 -0.833,0.509 -0.463,0.579 -1.083,2.18 -1.856,4.803 C -1.056,-1.123 -0.473,-0.357 0,0"
             style="fill:#424242;fill-opacity:1;fill-rule:nonzero;stroke:none"
             id="path4189" />
        </g>
      </g>
    </g>
  </g>
</svg>
