<?xml version="1.0" encoding="UTF-8" standalone="no"?>
<svg
   xmlns:dc="http://purl.org/dc/elements/1.1/"
   xmlns:cc="http://creativecommons.org/ns#"
   xmlns:rdf="http://www.w3.org/1999/02/22-rdf-syntax-ns#"
   xmlns:svg="http://www.w3.org/2000/svg"
   xmlns="http://www.w3.org/2000/svg"
   version="1.1"
   id="svg2"
   viewBox="0 0 15.999999 15.999999"
   height="16"
   width="16">
  <defs
     id="defs4">
    <clipPath
       clipPathUnits="userSpaceOnUse"
       id="clipPath4164">
      <path
         d="M 0,32 32,32 32,0 0,0 0,32 Z"
         id="path4166" />
    </clipPath>
    <clipPath
       clipPathUnits="userSpaceOnUse"
       id="clipPath4176">
      <path
         d="M 0,32 32,32 32,0 0,0 0,32 Z"
         id="path4178" />
    </clipPath>
    <clipPath
       clipPathUnits="userSpaceOnUse"
       id="clipPath4188">
      <path
         d="M 0,32 32,32 32,0 0,0 0,32 Z"
         id="path4190" />
    </clipPath>
    <clipPath
       id="clipPath4166"
       clipPathUnits="userSpaceOnUse">
      <path
         id="path4168"
         d="M 0,32 32,32 32,0 0,0 0,32 Z" />
    </clipPath>
    <clipPath
       id="clipPath4178"
       clipPathUnits="userSpaceOnUse">
      <path
         id="path4180"
         d="M 0,32 32,32 32,0 0,0 0,32 Z" />
    </clipPath>
    <clipPath
       id="clipPath4219"
       clipPathUnits="userSpaceOnUse">
      <path
         id="path4221"
         d="M 0,32 32,32 32,0 0,0 0,32 Z" />
    </clipPath>
    <clipPath
       id="clipPath4231"
       clipPathUnits="userSpaceOnUse">
      <path
         id="path4233"
         d="M 0,32 32,32 32,0 0,0 0,32 Z" />
    </clipPath>
    <clipPath
       clipPathUnits="userSpaceOnUse"
       id="clipPath4167">
      <path
         d="M 0,16 16,16 16,0 0,0 0,16 Z"
         id="path4169" />
    </clipPath>
    <clipPath
       clipPathUnits="userSpaceOnUse"
       id="clipPath4179">
      <path
         d="M 0,16 16,16 16,0 0,0 0,16 Z"
         id="path4181" />
    </clipPath>
    <clipPath
       clipPathUnits="userSpaceOnUse"
       id="clipPath4191">
      <path
         d="M 0,16 16,16 16,0 0,0 0,16 Z"
         id="path4193" />
    </clipPath>
    <clipPath
       clipPathUnits="userSpaceOnUse"
       id="clipPath4232">
      <path
         d="M 0,16 16,16 16,0 0,0 0,16 Z"
         id="path4234" />
    </clipPath>
    <clipPath
       clipPathUnits="userSpaceOnUse"
       id="clipPath4244">
      <path
         d="M 0,16 16,16 16,0 0,0 0,16 Z"
         id="path4246" />
    </clipPath>
    <clipPath
       clipPathUnits="userSpaceOnUse"
       id="clipPath4256">
      <path
         d="M 0,16 16,16 16,0 0,0 0,16 Z"
         id="path4258" />
    </clipPath>
  </defs>
  <metadata
     id="metadata7">
    <rdf:RDF>
      <cc:Work
         rdf:about="">
        <dc:format>image/svg+xml</dc:format>
        <dc:type
           rdf:resource="http://purl.org/dc/dcmitype/StillImage" />
        <dc:title></dc:title>
      </cc:Work>
    </rdf:RDF>
  </metadata>
  <rect
     y="6.0309143"
     x="6.3479428"
     height="1.6455548"
     width="3.2446251"
     id="rect4272"
     style="opacity:1;fill:#f6f6f6;fill-opacity:1;stroke:none;stroke-width:3;stroke-linejoin:miter;stroke-miterlimit:4;stroke-dasharray:none;stroke-dashoffset:0.40000001;stroke-opacity:1" />
  <rect
     y="0.27612093"
     x="4.2654319"
     height="6.2475305"
     width="7.3445663"
     id="rect4270"
     style="opacity:1;fill:#f6f6f6;fill-opacity:1;stroke:none;stroke-width:3;stroke-linejoin:miter;stroke-miterlimit:4;stroke-dasharray:none;stroke-dashoffset:0.40000001;stroke-opacity:1" />
  <rect
     y="7.1093564"
     x="1.1602613"
     height="3.4398603"
     width="13.443346"
     id="rect4268"
     style="opacity:1;fill:#f6f6f6;fill-opacity:1;stroke:none;stroke-width:3;stroke-linejoin:miter;stroke-miterlimit:4;stroke-dasharray:none;stroke-dashoffset:0.40000001;stroke-opacity:1" />
  <rect
     transform="scale(-1,-1)"
     y="-15.820573"
     x="-15.970253"
     height="5.596746"
     width="15.999998"
     id="rect4266"
     style="opacity:1;fill:#f6f6f6;fill-opacity:1;stroke:none;stroke-width:3;stroke-linejoin:miter;stroke-miterlimit:4;stroke-dasharray:none;stroke-dashoffset:0.40000001;stroke-opacity:1" />
  <rect
     y="1.7887342"
     x="5.7687478"
     height="3.1851163"
     width="4.2635589"
     id="rect4186"
     style="opacity:1;fill:#000000;fill-opacity:0;stroke:#424242;stroke-width:1.18443608;stroke-linejoin:miter;stroke-miterlimit:4;stroke-dasharray:none;stroke-dashoffset:0.40000001;stroke-opacity:1" />
  <rect
     y="11.902604"
     x="11.992789"
     height="2.2653086"
     width="2.2653086"
     id="rect4186-2"
     style="opacity:1;fill:none;fill-opacity:1;stroke:#424242;stroke-width:1.09703648;stroke-linejoin:miter;stroke-miterlimit:4;stroke-dasharray:none;stroke-dashoffset:0.40000001;stroke-opacity:1" />
  <rect
     y="11.880248"
     x="6.786468"
     height="2.2653084"
     width="2.2653084"
     id="rect4186-2-5"
     style="opacity:1;fill:none;fill-opacity:1;stroke:#424242;stroke-width:1.09703648;stroke-linejoin:miter;stroke-miterlimit:4;stroke-dasharray:none;stroke-dashoffset:0.40000001;stroke-opacity:1" />
  <rect
     y="11.880248"
     x="1.6545678"
     height="2.2653084"
     width="2.2653084"
     id="rect4186-2-7"
     style="opacity:1;fill:none;fill-opacity:1;stroke:#424242;stroke-width:1.09703648;stroke-linejoin:miter;stroke-miterlimit:4;stroke-dasharray:none;stroke-dashoffset:0.40000001;stroke-opacity:1" />
  <path
     id="path4226"
     d="m 7.8819338,4.7758301 0,7.1307369"
     style="fill:none;fill-opacity:1;fill-rule:evenodd;stroke:#424242;stroke-width:1.09703648;stroke-linecap:butt;stroke-linejoin:miter;stroke-miterlimit:4;stroke-dasharray:none;stroke-opacity:1" />
  <path
     id="path4232"
     d="m 2.7920762,11.909483 0,-3.2960975 10.2819808,0 0,3.2960975"
     style="fill:none;fill-rule:evenodd;stroke:#424242;stroke-width:1.0904758;stroke-linecap:butt;stroke-linejoin:miter;stroke-miterlimit:4;stroke-dasharray:none;stroke-opacity:1" />
</svg>
