<?xml version="1.0" encoding="UTF-8" standalone="no"?>
<svg
   xmlns:dc="http://purl.org/dc/elements/1.1/"
   xmlns:cc="http://creativecommons.org/ns#"
   xmlns:rdf="http://www.w3.org/1999/02/22-rdf-syntax-ns#"
   xmlns:svg="http://www.w3.org/2000/svg"
   xmlns="http://www.w3.org/2000/svg"
   version="1.1"
   id="svg2"
   viewBox="0 0 15.999999 15.999999"
   height="16"
   width="16">
  <defs
     id="defs4">
    <clipPath
       clipPathUnits="userSpaceOnUse"
       id="clipPath4164">
      <path
         d="M 0,32 32,32 32,0 0,0 0,32 Z"
         id="path4166" />
    </clipPath>
    <clipPath
       clipPathUnits="userSpaceOnUse"
       id="clipPath4176">
      <path
         d="M 0,32 32,32 32,0 0,0 0,32 Z"
         id="path4178" />
    </clipPath>
    <clipPath
       clipPathUnits="userSpaceOnUse"
       id="clipPath4188">
      <path
         d="M 0,32 32,32 32,0 0,0 0,32 Z"
         id="path4190" />
    </clipPath>
    <clipPath
       id="clipPath4166"
       clipPathUnits="userSpaceOnUse">
      <path
         id="path4168"
         d="M 0,32 32,32 32,0 0,0 0,32 Z" />
    </clipPath>
    <clipPath
       id="clipPath4178"
       clipPathUnits="userSpaceOnUse">
      <path
         id="path4180"
         d="M 0,32 32,32 32,0 0,0 0,32 Z" />
    </clipPath>
    <clipPath
       id="clipPath4219"
       clipPathUnits="userSpaceOnUse">
      <path
         id="path4221"
         d="M 0,32 32,32 32,0 0,0 0,32 Z" />
    </clipPath>
    <clipPath
       id="clipPath4231"
       clipPathUnits="userSpaceOnUse">
      <path
         id="path4233"
         d="M 0,32 32,32 32,0 0,0 0,32 Z" />
    </clipPath>
    <clipPath
       clipPathUnits="userSpaceOnUse"
       id="clipPath8097">
      <path
         d="M 0,32 32,32 32,0 0,0 0,32 Z"
         id="path8099" />
    </clipPath>
    <clipPath
       clipPathUnits="userSpaceOnUse"
       id="clipPath8113">
      <path
         d="M 0,32 32,32 32,0 0,0 0,32 Z"
         id="path8115" />
    </clipPath>
  </defs>
  <metadata
     id="metadata7">
    <rdf:RDF>
      <cc:Work
         rdf:about="">
        <dc:format>image/svg+xml</dc:format>
        <dc:type
           rdf:resource="http://purl.org/dc/dcmitype/StillImage" />
        <dc:title></dc:title>
      </cc:Work>
    </rdf:RDF>
  </metadata>
  <g
     id="g8091"
     transform="matrix(0.5000015,0,0,-0.5000015,0.03392723,15.928925)">
    <g
       id="g8093">
      <g
         id="g8095"
         clip-path="url(#clipPath8097)">
        <g
           id="g8101"
           transform="translate(20,11.8281)">
          <path
             d="m 0,0 0,2.172 2.172,0 L 0,0 Z m 12,20.172 -20,0 0,-14 -12,0 0,-18 20,0 0,2 3,0 c 2.207,0 4.084,1.437 4.746,3.426 L 10,-8.656 10,0 7.828,2.172 l 4.172,0 0,18 z"
             style="fill:#f6f6f6;fill-opacity:1;fill-rule:nonzero;stroke:none"
             id="path8103" />
        </g>
      </g>
    </g>
    <g
       id="g8105"
       transform="translate(22,22)">
      <path
         d="M 0,0 -6,6 6,6 0,0 Z m 6,-4 -12,0 0,7.005 4,-4 4,0 4,4 L 6,-4 Z m -18,-10 -6,6 12,0 -6,-6 z m 6,-4 -12,0 0,7 4,-4 4,0 4,4 0,-7 z m -2,26 0,-14 -12,0 0,-14 16,0 0,14 12,0 0,14 -16,0 z"
         style="fill:#424242;fill-opacity:1;fill-rule:nonzero;stroke:none"
         id="path8107" />
    </g>
    <g
       id="g8109">
      <g
         id="g8111"
         clip-path="url(#clipPath8113)">
        <g
           id="g8117"
           transform="translate(22,11)">
          <path
             d="m 0,0 0,-3 2,2 0,-3 C 2,-4.551 1.551,-5 1,-5 l -3,0 0,-2 3,0 c 1.652,0 3,1.346 3,3 L 4,-1 6,-3 6,0 3,3 0,0 Z"
             style="fill:#424242;fill-opacity:1;fill-rule:nonzero;stroke:none"
             id="path8119" />
        </g>
      </g>
    </g>
    <g
       id="g8121"
       transform="translate(20,21)">
      <path
         d="M 0,0 -4,4 -4,-3 8,-3 8,4 4,0 0,0 Z"
         style="fill:#f0eff1;fill-opacity:1;fill-rule:nonzero;stroke:none"
         id="path8123" />
    </g>
    <g
       id="g8125"
       transform="translate(28,28)">
      <path
         d="m 0,0 -12,0 6,-6 6,6 z"
         style="fill:#f0eff1;fill-opacity:1;fill-rule:nonzero;stroke:none"
         id="path8127" />
    </g>
    <g
       id="g8129"
       transform="translate(8,7)">
      <path
         d="M 0,0 -4,4 -4,-3 8,-3 8,4 4,0 0,0 Z"
         style="fill:#f0eff1;fill-opacity:1;fill-rule:nonzero;stroke:none"
         id="path8131" />
    </g>
    <g
       id="g8133"
       transform="translate(16,14)">
      <path
         d="m 0,0 -12,0 6,-6 6,6 z"
         style="fill:#f0eff1;fill-opacity:1;fill-rule:nonzero;stroke:none"
         id="path8135" />
    </g>
  </g>
</svg>
