<?xml version="1.0" encoding="UTF-8" standalone="no"?>
<svg
   xmlns:dc="http://purl.org/dc/elements/1.1/"
   xmlns:cc="http://creativecommons.org/ns#"
   xmlns:rdf="http://www.w3.org/1999/02/22-rdf-syntax-ns#"
   xmlns:svg="http://www.w3.org/2000/svg"
   xmlns="http://www.w3.org/2000/svg"
   version="1.1"
   id="svg2"
   viewBox="0 0 15.999999 15.999999"
   height="16"
   width="16">
  <defs
     id="defs4">
    <clipPath
       clipPathUnits="userSpaceOnUse"
       id="clipPath4164">
      <path
         d="M 0,32 32,32 32,0 0,0 0,32 Z"
         id="path4166" />
    </clipPath>
    <clipPath
       clipPathUnits="userSpaceOnUse"
       id="clipPath4176">
      <path
         d="M 0,32 32,32 32,0 0,0 0,32 Z"
         id="path4178" />
    </clipPath>
    <clipPath
       clipPathUnits="userSpaceOnUse"
       id="clipPath4188">
      <path
         d="M 0,32 32,32 32,0 0,0 0,32 Z"
         id="path4190" />
    </clipPath>
    <clipPath
       id="clipPath4166"
       clipPathUnits="userSpaceOnUse">
      <path
         id="path4168"
         d="M 0,32 32,32 32,0 0,0 0,32 Z" />
    </clipPath>
    <clipPath
       id="clipPath4178"
       clipPathUnits="userSpaceOnUse">
      <path
         id="path4180"
         d="M 0,32 32,32 32,0 0,0 0,32 Z" />
    </clipPath>
    <clipPath
       id="clipPath4219"
       clipPathUnits="userSpaceOnUse">
      <path
         id="path4221"
         d="M 0,32 32,32 32,0 0,0 0,32 Z" />
    </clipPath>
    <clipPath
       id="clipPath4231"
       clipPathUnits="userSpaceOnUse">
      <path
         id="path4233"
         d="M 0,32 32,32 32,0 0,0 0,32 Z" />
    </clipPath>
    <clipPath
       clipPathUnits="userSpaceOnUse"
       id="clipPath4164-3">
      <path
         d="M 0,32 32,32 32,0 0,0 0,32 Z"
         id="path4166-6" />
    </clipPath>
    <clipPath
       clipPathUnits="userSpaceOnUse"
       id="clipPath4176-8">
      <path
         d="M 0,32 32,32 32,0 0,0 0,32 Z"
         id="path4178-2" />
    </clipPath>
    <clipPath
       clipPathUnits="userSpaceOnUse"
       id="clipPath4188-7">
      <path
         d="M 0,32 32,32 32,0 0,0 0,32 Z"
         id="path4190-0" />
    </clipPath>
    <clipPath
       id="clipPath4164-6"
       clipPathUnits="userSpaceOnUse">
      <path
         id="path4166-8"
         d="M 0,32 32,32 32,0 0,0 0,32 Z" />
    </clipPath>
    <clipPath
       id="clipPath4176-0"
       clipPathUnits="userSpaceOnUse">
      <path
         id="path4178-5"
         d="M 0,32 32,32 32,0 0,0 0,32 Z" />
    </clipPath>
    <clipPath
       id="clipPath4188-2"
       clipPathUnits="userSpaceOnUse">
      <path
         id="path4190-7"
         d="M 0,32 32,32 32,0 0,0 0,32 Z" />
    </clipPath>
    <clipPath
       clipPathUnits="userSpaceOnUse"
       id="clipPath4166-7">
      <path
         d="M 0,32 32,32 32,0 0,0 0,32 Z"
         id="path4168-6" />
    </clipPath>
    <clipPath
       clipPathUnits="userSpaceOnUse"
       id="clipPath4178-1">
      <path
         d="M 0,32 32,32 32,0 0,0 0,32 Z"
         id="path4180-9" />
    </clipPath>
    <clipPath
       clipPathUnits="userSpaceOnUse"
       id="clipPath4219-2">
      <path
         d="M 0,32 32,32 32,0 0,0 0,32 Z"
         id="path4221-0" />
    </clipPath>
    <clipPath
       clipPathUnits="userSpaceOnUse"
       id="clipPath4231-8">
      <path
         d="M 0,32 32,32 32,0 0,0 0,32 Z"
         id="path4233-6" />
    </clipPath>
    <clipPath
       id="clipPath4164-8"
       clipPathUnits="userSpaceOnUse">
      <path
         id="path4166-7"
         d="M 0,32 32,32 32,0 0,0 0,32 Z" />
    </clipPath>
    <clipPath
       id="clipPath4176-3"
       clipPathUnits="userSpaceOnUse">
      <path
         id="path4178-4"
         d="M 0,32 32,32 32,0 0,0 0,32 Z" />
    </clipPath>
    <clipPath
       id="clipPath4188-5"
       clipPathUnits="userSpaceOnUse">
      <path
         id="path4190-73"
         d="M 0,32 32,32 32,0 0,0 0,32 Z" />
    </clipPath>
    <clipPath
       clipPathUnits="userSpaceOnUse"
       id="clipPath4166-8">
      <path
         d="M 0,32 32,32 32,0 0,0 0,32 Z"
         id="path4168-8" />
    </clipPath>
    <clipPath
       clipPathUnits="userSpaceOnUse"
       id="clipPath4178-5">
      <path
         d="M 0,32 32,32 32,0 0,0 0,32 Z"
         id="path4180-4" />
    </clipPath>
    <clipPath
       clipPathUnits="userSpaceOnUse"
       id="clipPath4219-6">
      <path
         d="M 0,32 32,32 32,0 0,0 0,32 Z"
         id="path4221-4" />
    </clipPath>
    <clipPath
       clipPathUnits="userSpaceOnUse"
       id="clipPath4231-9">
      <path
         d="M 0,32 32,32 32,0 0,0 0,32 Z"
         id="path4233-2" />
    </clipPath>
  </defs>
  <metadata
     id="metadata7">
    <rdf:RDF>
      <cc:Work
         rdf:about="">
        <dc:format>image/svg+xml</dc:format>
        <dc:type
           rdf:resource="http://purl.org/dc/dcmitype/StillImage" />
        <dc:title></dc:title>
      </cc:Work>
    </rdf:RDF>
  </metadata>
  <g
     id="g8126"
     transform="matrix(0.49999994,0,0,-0.49999994,0.05020687,16.038387)">
    <g
       id="g8128"
       transform="translate(17.865,32.0004)">
      <path
         d="M 0,0 -1.866,-3.113 -3.734,0 -5.229,0 -17.222,-4.499 -13.47,-7 l -1.395,0 0,-25 26,0 0,25 -1.394,0 3.753,2.501 L 1.498,0 0,0 Z"
         style="fill:#f6f6f6;fill-opacity:1;fill-rule:nonzero;stroke:none"
         id="path8130" />
    </g>
    <path
       d="m 14,5 -6,0 0,6 6,0 0,-6 z m 10,0 -6,0 0,6 6,0 0,-6 z m 0,9 -6,0 0,6 6,0 0,-6 z m -10,0 -6,0 0,6 6,0 0,-6 z m 7,9 6,4 -8.001,3 L 16,25 12.999,30 5,27 11,23 5,23 5,2 l 22,0 0,21 -6,0 z"
       style="fill:#424242;fill-opacity:1;fill-rule:nonzero;stroke:none"
       id="path8132" />
    <path
       d="m 14,11 -6,0 0,-6 6,0 0,6 z m 10,0 -6,0 0,-6 6,0 0,6 z m 0,9 -6,0 0,-6 6,0 0,6 z m -10,-6 -6,0 0,6 6,0 0,-6 z"
       style="fill:#f0eff1;fill-opacity:1;fill-rule:nonzero;stroke:none"
       id="path8134" />
  </g>
</svg>
