<?xml version="1.0" encoding="UTF-8" standalone="no"?>
<svg
   xmlns:dc="http://purl.org/dc/elements/1.1/"
   xmlns:cc="http://creativecommons.org/ns#"
   xmlns:rdf="http://www.w3.org/1999/02/22-rdf-syntax-ns#"
   xmlns:svg="http://www.w3.org/2000/svg"
   xmlns="http://www.w3.org/2000/svg"
   version="1.1"
   id="svg2"
   viewBox="0 0 15.999999 15.999999"
   height="16"
   width="16">
  <defs
     id="defs4">
    <clipPath
       clipPathUnits="userSpaceOnUse"
       id="clipPath4164">
      <path
         d="M 0,32 32,32 32,0 0,0 0,32 Z"
         id="path4166" />
    </clipPath>
    <clipPath
       clipPathUnits="userSpaceOnUse"
       id="clipPath4176">
      <path
         d="M 0,32 32,32 32,0 0,0 0,32 Z"
         id="path4178" />
    </clipPath>
    <clipPath
       clipPathUnits="userSpaceOnUse"
       id="clipPath4188">
      <path
         d="M 0,32 32,32 32,0 0,0 0,32 Z"
         id="path4190" />
    </clipPath>
    <clipPath
       id="clipPath4166"
       clipPathUnits="userSpaceOnUse">
      <path
         id="path4168"
         d="M 0,32 32,32 32,0 0,0 0,32 Z" />
    </clipPath>
    <clipPath
       id="clipPath4178"
       clipPathUnits="userSpaceOnUse">
      <path
         id="path4180"
         d="M 0,32 32,32 32,0 0,0 0,32 Z" />
    </clipPath>
    <clipPath
       id="clipPath4219"
       clipPathUnits="userSpaceOnUse">
      <path
         id="path4221"
         d="M 0,32 32,32 32,0 0,0 0,32 Z" />
    </clipPath>
    <clipPath
       id="clipPath4231"
       clipPathUnits="userSpaceOnUse">
      <path
         id="path4233"
         d="M 0,32 32,32 32,0 0,0 0,32 Z" />
    </clipPath>
    <clipPath
       clipPathUnits="userSpaceOnUse"
       id="clipPath8097">
      <path
         d="M 0,32 32,32 32,0 0,0 0,32 Z"
         id="path8099" />
    </clipPath>
    <clipPath
       clipPathUnits="userSpaceOnUse"
       id="clipPath8109">
      <path
         d="M 0,32 32,32 32,0 0,0 0,32 Z"
         id="path8111" />
    </clipPath>
    <clipPath
       clipPathUnits="userSpaceOnUse"
       id="clipPath8133">
      <path
         d="M 0,32 32,32 32,0 0,0 0,32 Z"
         id="path8135" />
    </clipPath>
  </defs>
  <metadata
     id="metadata7">
    <rdf:RDF>
      <cc:Work
         rdf:about="">
        <dc:format>image/svg+xml</dc:format>
        <dc:type
           rdf:resource="http://purl.org/dc/dcmitype/StillImage" />
        <dc:title></dc:title>
      </cc:Work>
    </rdf:RDF>
  </metadata>
  <g
     id="g8091"
     transform="matrix(0.50000463,0,0,-0.50000463,-0.01841708,16.040816)">
    <g
       id="g8093">
      <g
         id="g8095"
         clip-path="url(#clipPath8097)">
        <g
           id="g8101"
           transform="translate(27,25.4033)">
          <path
             d="m 0,0 -1,-0.667 0,1.334 -8.895,5.93 -4.21,0 -11.895,-7.93 0,-12.141 2.362,-1.575 -0.718,-2.324 1.075,0 -0.744,-2.654 c -0.037,0.001 -0.073,0.002 -0.111,0.002 -0.921,0 -1.546,-0.361 -1.902,-0.658 -0.62,-0.513 -0.962,-1.226 -0.962,-2.006 0,-0.83 0.403,-1.6 1.099,-2.109 0.55,-0.408 1.234,-0.605 2.089,-0.605 1.023,0 1.957,0.256 2.772,0.757 0.782,0.481 1.454,1.196 1.999,2.129 0.046,0.079 0.091,0.161 0.136,0.246 0.058,-0.064 0.12,-0.126 0.186,-0.186 0.359,-0.321 0.985,-0.706 1.931,-0.706 0.512,0 1.005,0.1 1.487,0.309 0.401,0.177 0.801,0.453 1.241,0.854 0.234,-0.274 0.498,-0.503 0.791,-0.683 0.519,-0.316 1.125,-0.478 1.802,-0.479 l 1.862,-1.241 1.21,0 L 5,-15.474 5,-3.333 0,0 Z"
             style="fill:#f6f6f6;fill-opacity:1;fill-rule:nonzero;stroke:none"
             id="path8103" />
        </g>
      </g>
    </g>
    <g
       id="g8105">
      <g
         id="g8107"
         clip-path="url(#clipPath8109)">
        <g
           id="g8113"
           transform="translate(12,18.2031)">
          <path
             d="M 0,0 -6.295,4.195 3,10.395 9.295,6.195 0,0 Z m 15,4.797 -3,-2 0,4 -9,6 -12,-8 0,-10 0.979,-0.652 0.145,0.47 1.217,-0.017 c 0.16,0.255 0.324,0.492 0.491,0.714 L -7,-4.134 l 0,6.396 6,-4 0,-0.494 C -0.292,-2.297 0.293,-2.502 0.765,-2.873 0.853,-2.939 0.922,-3.022 1,-3.098 l 0,1.36 9,6 0,-2.799 -7,-4.666 0,-2.441 0.168,-0.238 c 0.153,0.109 0.303,0.198 0.453,0.273 0.501,0.244 1.019,0.363 1.558,0.363 0.985,0 1.618,-0.4 1.977,-0.736 C 7.695,-6.477 8,-7.189 8,-7.974 8,-8.736 7.701,-9.438 7.156,-9.947 6.93,-10.163 6.667,-10.336 6.379,-10.46 l 2.228,-1.169 -1.265,-1.855 C 6.861,-14.187 6.374,-14.718 5.861,-15.111 L 6,-15.203 l 12,8 0,10 -3,2 z"
             style="fill:#424242;fill-opacity:1;fill-rule:nonzero;stroke:none"
             id="path8115" />
        </g>
        <g
           id="g8117"
           transform="translate(15.7383,9.4678)">
          <path
             d="m 0,0 c 0.183,0.132 0.375,0.197 0.577,0.197 0.076,0 0.216,-0.025 0.412,-0.074 0.202,-0.051 0.378,-0.076 0.531,-0.076 0.211,0 0.39,0.066 0.53,0.199 0.143,0.135 0.212,0.306 0.212,0.516 0,0.222 -0.069,0.4 -0.212,0.532 C 1.91,1.425 1.706,1.489 1.44,1.489 1.207,1.489 0.984,1.438 0.773,1.336 0.565,1.232 0.302,1.012 -0.021,0.67 -0.26,0.416 -0.617,-0.027 -1.086,-0.662 c -0.188,0.783 -0.509,1.5 -0.969,2.151 l -3.057,0 0,-1.119 c 0.186,0.034 0.842,0.529 0.97,0.529 0.251,0 0.457,-0.098 0.621,-0.295 0.259,-0.306 0.621,-1.237 1.082,-2.794 -0.362,-0.442 -1.045,-1.185 -1.18,-1.32 -0.221,-0.219 -0.404,-0.36 -0.548,-0.426 -0.108,-0.054 -0.234,-0.079 -0.375,-0.079 -0.104,0 -0.278,0.051 -0.519,0.16 -0.163,0.067 -0.308,0.104 -0.438,0.104 -0.245,0 -0.447,-0.074 -0.606,-0.219 -0.16,-0.143 -0.238,-0.325 -0.238,-0.55 0,-0.209 0.074,-0.378 0.222,-0.513 0.143,-0.129 0.344,-0.195 0.595,-0.195 0.237,0 0.463,0.045 0.674,0.136 0.211,0.094 0.477,0.288 0.797,0.59 0.32,0.297 1.196,1.227 1.758,1.878 0.215,-0.62 0.633,-1.527 0.79,-1.808 0.157,-0.28 0.34,-0.484 0.544,-0.609 0.204,-0.125 0.458,-0.187 0.768,-0.187 0.297,0 0.599,0.095 0.906,0.294 0.402,0.252 0.816,0.692 1.24,1.313 L 1.692,-3.485 C 1.403,-3.85 1.188,-4.08 1.052,-4.173 0.96,-4.23 0.852,-4.26 0.725,-4.26 c -0.148,0 -0.295,0.087 -0.439,0.259 -0.247,0.286 -0.801,1.54 -1.208,2.853 C -0.557,-0.562 -0.25,-0.18 0,0"
             style="fill:#424242;fill-opacity:1;fill-rule:nonzero;stroke:none"
             id="path8119" />
        </g>
        <g
           id="g8121"
           transform="translate(8.4463,10.7979)">
          <path
             d="m 0,0 c 0.297,1.107 0.69,1.917 1.181,2.428 0.297,0.32 0.588,0.478 0.87,0.478 0.06,0 0.105,-0.013 0.139,-0.045 C 2.229,2.83 2.247,2.792 2.247,2.742 2.247,2.7 2.206,2.615 2.127,2.493 2.049,2.372 2.009,2.256 2.009,2.146 2.009,1.992 2.07,1.861 2.196,1.752 2.323,1.643 2.479,1.588 2.671,1.588 c 0.207,0 0.379,0.067 0.518,0.2 0.14,0.134 0.21,0.316 0.21,0.542 0,0.259 -0.103,0.468 -0.314,0.629 C 2.877,3.122 2.541,3.202 2.08,3.202 1.361,3.202 0.707,3.011 0.122,2.625 -0.465,2.24 -1.021,1.604 -1.549,0.715 -1.731,0.41 -1.905,0.212 -2.067,0.124 -2.231,0.038 -2.493,-0.005 -2.854,0 l -0.237,-0.768 1.002,0 -1.471,-5.244 c -0.243,-0.861 -0.411,-1.391 -0.496,-1.592 -0.123,-0.292 -0.315,-0.542 -0.57,-0.749 -0.099,-0.083 -0.222,-0.126 -0.365,-0.126 -0.039,0 -0.072,0.012 -0.103,0.036 l -0.036,0.046 c 0,0.022 0.036,0.065 0.109,0.132 0.071,0.068 0.109,0.173 0.109,0.312 0,0.153 -0.059,0.281 -0.173,0.38 -0.116,0.102 -0.281,0.153 -0.497,0.153 -0.259,0 -0.468,-0.065 -0.627,-0.198 -0.158,-0.131 -0.237,-0.286 -0.237,-0.466 0,-0.192 0.094,-0.359 0.288,-0.501 0.191,-0.142 0.491,-0.213 0.9,-0.213 0.649,0 1.224,0.153 1.725,0.462 0.502,0.309 0.94,0.785 1.315,1.427 0.372,0.642 0.759,1.68 1.151,3.112 l 0.843,3.029 1.016,0 L 1.045,0 0,0 Z"
             style="fill:#424242;fill-opacity:1;fill-rule:nonzero;stroke:none"
             id="path8123" />
        </g>
      </g>
    </g>
    <g
       id="g8125"
       transform="translate(15,28.5977)">
      <path
         d="M 0,0 -9.295,-6.199 -3,-10.395 6.295,-4.199 0,0 Z"
         style="fill:#f0eff1;fill-opacity:1;fill-rule:nonzero;stroke:none"
         id="path8127" />
    </g>
    <g
       id="g8129">
      <g
         id="g8131"
         clip-path="url(#clipPath8133)">
        <g
           id="g8137"
           transform="translate(5,14.0693)">
          <path
             d="M 0,0 0.832,-0.555 C 1.338,0.116 1.881,0.639 2.472,1.026 3.38,1.625 4.41,1.931 5.526,1.931 5.693,1.931 5.846,1.915 6,1.901 l 0,0.495 -6,4 L 0,0 Z"
             style="fill:#f0eff1;fill-opacity:1;fill-rule:nonzero;stroke:none"
             id="path8139" />
        </g>
        <g
           id="g8141"
           transform="translate(13,16.4648)">
          <path
             d="m 0,0 0,-1.359 c 0.534,-0.516 0.846,-1.204 0.846,-1.978 0,-0.058 -0.002,-0.114 -0.005,-0.171 l 0.879,0 L 2,-3.905 2,-1.465 9,3.201 9,6 0,0 Z"
             style="fill:#f0eff1;fill-opacity:1;fill-rule:nonzero;stroke:none"
             id="path8143" />
        </g>
      </g>
    </g>
  </g>
</svg>
