<?xml version="1.0" encoding="UTF-8" standalone="no"?>
<svg
   xmlns:dc="http://purl.org/dc/elements/1.1/"
   xmlns:cc="http://creativecommons.org/ns#"
   xmlns:rdf="http://www.w3.org/1999/02/22-rdf-syntax-ns#"
   xmlns:svg="http://www.w3.org/2000/svg"
   xmlns="http://www.w3.org/2000/svg"
   version="1.1"
   id="svg2"
   viewBox="0 0 15.999999 15.999999"
   height="16"
   width="16">
  <defs
     id="defs4">
    <clipPath
       clipPathUnits="userSpaceOnUse"
       id="clipPath4164">
      <path
         d="M 0,32 32,32 32,0 0,0 0,32 Z"
         id="path4166" />
    </clipPath>
    <clipPath
       clipPathUnits="userSpaceOnUse"
       id="clipPath4176">
      <path
         d="M 0,32 32,32 32,0 0,0 0,32 Z"
         id="path4178" />
    </clipPath>
    <clipPath
       clipPathUnits="userSpaceOnUse"
       id="clipPath4188">
      <path
         d="M 0,32 32,32 32,0 0,0 0,32 Z"
         id="path4190" />
    </clipPath>
    <clipPath
       id="clipPath4166"
       clipPathUnits="userSpaceOnUse">
      <path
         id="path4168"
         d="M 0,32 32,32 32,0 0,0 0,32 Z" />
    </clipPath>
    <clipPath
       id="clipPath4178"
       clipPathUnits="userSpaceOnUse">
      <path
         id="path4180"
         d="M 0,32 32,32 32,0 0,0 0,32 Z" />
    </clipPath>
    <clipPath
       id="clipPath4219"
       clipPathUnits="userSpaceOnUse">
      <path
         id="path4221"
         d="M 0,32 32,32 32,0 0,0 0,32 Z" />
    </clipPath>
    <clipPath
       id="clipPath4231"
       clipPathUnits="userSpaceOnUse">
      <path
         id="path4233"
         d="M 0,32 32,32 32,0 0,0 0,32 Z" />
    </clipPath>
    <clipPath
       clipPathUnits="userSpaceOnUse"
       id="clipPath4167">
      <path
         d="M 0,16 16,16 16,0 0,0 0,16 Z"
         id="path4169" />
    </clipPath>
    <clipPath
       clipPathUnits="userSpaceOnUse"
       id="clipPath4179">
      <path
         d="M 0,16 16,16 16,0 0,0 0,16 Z"
         id="path4181" />
    </clipPath>
    <clipPath
       clipPathUnits="userSpaceOnUse"
       id="clipPath4191">
      <path
         d="M 0,16 16,16 16,0 0,0 0,16 Z"
         id="path4193" />
    </clipPath>
    <clipPath
       clipPathUnits="userSpaceOnUse"
       id="clipPath4232">
      <path
         d="M 0,16 16,16 16,0 0,0 0,16 Z"
         id="path4234" />
    </clipPath>
    <clipPath
       clipPathUnits="userSpaceOnUse"
       id="clipPath4244">
      <path
         d="M 0,16 16,16 16,0 0,0 0,16 Z"
         id="path4246" />
    </clipPath>
    <clipPath
       clipPathUnits="userSpaceOnUse"
       id="clipPath4256">
      <path
         d="M 0,16 16,16 16,0 0,0 0,16 Z"
         id="path4258" />
    </clipPath>
  </defs>
  <metadata
     id="metadata7">
    <rdf:RDF>
      <cc:Work
         rdf:about="">
        <dc:format>image/svg+xml</dc:format>
        <dc:type
           rdf:resource="http://purl.org/dc/dcmitype/StillImage" />
        <dc:title></dc:title>
      </cc:Work>
    </rdf:RDF>
  </metadata>
  <g
     id="g4226"
     transform="matrix(0,-1.142857,-1.142857,0,16.956674,17.154714)">
    <g
       id="g4228">
      <g
         id="g4230"
         clip-path="url(#clipPath4232)">
        <g
           id="g4236"
           transform="translate(11,12)">
          <path
             d="m 0,0 c -1.475,0 -2.75,-0.81 -3.443,-2 l -6.557,0 0,-4 1,0 0,-2 5,0 0,2 0.557,0 C -2.75,-7.189 -1.475,-8 0,-8 c 2.206,0 4,1.794 4,4 0,2.206 -1.794,4 -4,4"
             style="fill:#f6f6f6;fill-opacity:1;fill-rule:nonzero;stroke:none"
             id="path4238" />
        </g>
      </g>
    </g>
    <g
       id="g4240">
      <g
         id="g4242"
         clip-path="url(#clipPath4244)">
        <g
           id="g4248"
           transform="translate(11,7)">
          <path
             d="M 0,0 C -0.551,0 -1,0.449 -1,1 -1,1.551 -0.551,2 0,2 0.553,2 1,1.551 1,1 1,0.449 0.553,0 0,0 M 0,4 C -1.301,4 -2.401,3.161 -2.815,2 L -9,2 l 0,-2 1,0 0,-2 1,0 0,2 1,0 0,-2 1,0 0,2 2.185,0 C -2.401,-1.161 -1.301,-2 0,-2 1.654,-2 3,-0.654 3,1 3,2.654 1.654,4 0,4"
             style="fill:#424242;fill-opacity:1;fill-rule:nonzero;stroke:none"
             id="path4250" />
        </g>
      </g>
    </g>
    <g
       id="g4252">
      <g
         id="g4254"
         clip-path="url(#clipPath4256)">
        <g
           id="g4260"
           transform="translate(12,8)">
          <path
             d="m 0,0 c 0,0.551 -0.447,1 -1,1 -0.551,0 -1,-0.449 -1,-1 0,-0.551 0.449,-1 1,-1 0.553,0 1,0.449 1,1"
             style="fill:#f0eff1;fill-opacity:1;fill-rule:nonzero;stroke:none"
             id="path4262" />
        </g>
      </g>
    </g>
  </g>
</svg>
