<?xml version="1.0" encoding="UTF-8" standalone="no"?>
<svg
   xmlns:dc="http://purl.org/dc/elements/1.1/"
   xmlns:cc="http://creativecommons.org/ns#"
   xmlns:rdf="http://www.w3.org/1999/02/22-rdf-syntax-ns#"
   xmlns:svg="http://www.w3.org/2000/svg"
   xmlns="http://www.w3.org/2000/svg"
   version="1.1"
   id="svg2"
   viewBox="0 0 15.999999 15.999999"
   height="16"
   width="16">
  <defs
     id="defs4">
    <clipPath
       clipPathUnits="userSpaceOnUse"
       id="clipPath4164">
      <path
         d="M 0,32 32,32 32,0 0,0 0,32 Z"
         id="path4166" />
    </clipPath>
    <clipPath
       clipPathUnits="userSpaceOnUse"
       id="clipPath4176">
      <path
         d="M 0,32 32,32 32,0 0,0 0,32 Z"
         id="path4178" />
    </clipPath>
    <clipPath
       clipPathUnits="userSpaceOnUse"
       id="clipPath4188">
      <path
         d="M 0,32 32,32 32,0 0,0 0,32 Z"
         id="path4190" />
    </clipPath>
    <clipPath
       id="clipPath4166"
       clipPathUnits="userSpaceOnUse">
      <path
         id="path4168"
         d="M 0,32 32,32 32,0 0,0 0,32 Z" />
    </clipPath>
    <clipPath
       id="clipPath4178"
       clipPathUnits="userSpaceOnUse">
      <path
         id="path4180"
         d="M 0,32 32,32 32,0 0,0 0,32 Z" />
    </clipPath>
    <clipPath
       id="clipPath4219"
       clipPathUnits="userSpaceOnUse">
      <path
         id="path4221"
         d="M 0,32 32,32 32,0 0,0 0,32 Z" />
    </clipPath>
    <clipPath
       id="clipPath4231"
       clipPathUnits="userSpaceOnUse">
      <path
         id="path4233"
         d="M 0,32 32,32 32,0 0,0 0,32 Z" />
    </clipPath>
  </defs>
  <metadata
     id="metadata7">
    <rdf:RDF>
      <cc:Work
         rdf:about="">
        <dc:format>image/svg+xml</dc:format>
        <dc:type
           rdf:resource="http://purl.org/dc/dcmitype/StillImage" />
        <dc:title></dc:title>
      </cc:Work>
    </rdf:RDF>
  </metadata>
  <g
     id="g4158"
     transform="matrix(1.0666665,0,0,-1.0666665,-1.0692852,17.064182)">
    <path
       d="M 16,1 1,1 1,16 16,16 16,1 Z"
       style="fill:#f6f6f6;fill-opacity:1;fill-rule:nonzero;stroke:none"
       id="path4160" />
    <path
       d="M 8,6 4,6 4,7 8,7 8,6 Z M 8,8 4,8 4,9 8,9 8,8 Z M 13,4 7,4 7,5 13,5 13,4 Z M 12,6 9,6 9,7 12,7 12,6 Z M 6,4 4,4 4,5 6,5 6,4 Z m 5,4 -2,0 0,1 2,0 0,-1 z m -3,2 -4,0 0,1 4,0 0,-1 z M 14,3 3,3 3,12 14,12 14,3 Z M 2,2 15,2 15,15 2,15 2,2 Z"
       style="fill:#424242;fill-opacity:1;fill-rule:nonzero;stroke:none"
       id="path4162" />
    <path
       d="M 13,4 7,4 7,5 13,5 13,4 Z M 6,4 4,4 4,5 6,5 6,4 Z M 4,7 8,6.981 8,6 4,6 4,7 Z M 4,8.981 8,9 8,8 4,8 4,8.981 Z M 4,11 8,11 8,10 4,10 4,11 Z M 9,7 12,7 12,6 9,6 9,7 Z M 9,9 11,9 11,8 9,8 9,9 Z M 3,3 14,3 14,12 3,12 3,3 Z"
       style="fill:#f0eff1;fill-opacity:1;fill-rule:nonzero;stroke:none"
       id="path4164" />
  </g>
</svg>
