<?xml version="1.0" encoding="UTF-8" standalone="no"?>
<svg
   xmlns:dc="http://purl.org/dc/elements/1.1/"
   xmlns:cc="http://creativecommons.org/ns#"
   xmlns:rdf="http://www.w3.org/1999/02/22-rdf-syntax-ns#"
   xmlns:svg="http://www.w3.org/2000/svg"
   xmlns="http://www.w3.org/2000/svg"
   version="1.1"
   id="svg2"
   viewBox="0 0 15.999999 15.999999"
   height="16"
   width="16">
  <defs
     id="defs4">
    <clipPath
       clipPathUnits="userSpaceOnUse"
       id="clipPath4164">
      <path
         d="M 0,32 32,32 32,0 0,0 0,32 Z"
         id="path4166" />
    </clipPath>
    <clipPath
       clipPathUnits="userSpaceOnUse"
       id="clipPath4176">
      <path
         d="M 0,32 32,32 32,0 0,0 0,32 Z"
         id="path4178" />
    </clipPath>
    <clipPath
       clipPathUnits="userSpaceOnUse"
       id="clipPath4188">
      <path
         d="M 0,32 32,32 32,0 0,0 0,32 Z"
         id="path4190" />
    </clipPath>
    <clipPath
       id="clipPath4166"
       clipPathUnits="userSpaceOnUse">
      <path
         id="path4168"
         d="M 0,32 32,32 32,0 0,0 0,32 Z" />
    </clipPath>
    <clipPath
       id="clipPath4178"
       clipPathUnits="userSpaceOnUse">
      <path
         id="path4180"
         d="M 0,32 32,32 32,0 0,0 0,32 Z" />
    </clipPath>
    <clipPath
       id="clipPath4219"
       clipPathUnits="userSpaceOnUse">
      <path
         id="path4221"
         d="M 0,32 32,32 32,0 0,0 0,32 Z" />
    </clipPath>
    <clipPath
       id="clipPath4231"
       clipPathUnits="userSpaceOnUse">
      <path
         id="path4233"
         d="M 0,32 32,32 32,0 0,0 0,32 Z" />
    </clipPath>
    <clipPath
       clipPathUnits="userSpaceOnUse"
       id="clipPath8099">
      <path
         d="M 0,32 32,32 32,0 0,0 0,32 Z"
         id="path8101" />
    </clipPath>
    <clipPath
       clipPathUnits="userSpaceOnUse"
       id="clipPath8113">
      <path
         d="M 0,32 32,32 32,0 0,0 0,32 Z"
         id="path8115" />
    </clipPath>
  </defs>
  <metadata
     id="metadata7">
    <rdf:RDF>
      <cc:Work
         rdf:about="">
        <dc:format>image/svg+xml</dc:format>
        <dc:type
           rdf:resource="http://purl.org/dc/dcmitype/StillImage" />
        <dc:title></dc:title>
      </cc:Work>
    </rdf:RDF>
  </metadata>
  <g
     id="g8091"
     transform="matrix(0.49999994,0,0,-0.49999994,0,15.999998)">
    <path
       d="M 2,0 30,0 30,32 2,32 2,0 Z"
       style="fill:#f6f6f6;fill-opacity:1;fill-rule:nonzero;stroke:none"
       id="path8093" />
    <g
       id="g8095">
      <g
         id="g8097"
         clip-path="url(#clipPath8099)">
        <g
           id="g8103"
           transform="translate(16,23.002)">
          <path
             d="m 0,0 c 1.656,0 3,-1.344 3,-3 0,-1.658 -1.344,-3 -3,-3 -1.656,0 -3,1.342 -3,3 0,1.656 1.344,3 3,3 m -2.316,-8.535 -1.434,-8.467 0.75,0 3,4 3.25,-4 0.75,0 -1.684,8.467 C 4.479,-7.629 6,-5.494 6,-3.002 c 0,3.315 -2.687,6 -6,6 -3.313,0 -6,-2.685 -6,-6 0,-2.492 1.521,-4.627 3.684,-5.533"
             style="fill:#424242;fill-opacity:1;fill-rule:nonzero;stroke:none"
             id="path8105" />
        </g>
        <path
           d="M 26,4 6,4 6,28 26,28 26,4 Z M 4,2 28,2 28,30 4,30 4,2 Z"
           style="fill:#424242;fill-opacity:1;fill-rule:nonzero;stroke:none"
           id="path8107" />
      </g>
    </g>
    <g
       id="g8109">
      <g
         id="g8111"
         clip-path="url(#clipPath8113)">
        <g
           id="g8117"
           transform="translate(16,23.002)">
          <path
             d="m 0,0 c -1.656,0 -3,-1.344 -3,-3 0,-1.658 1.344,-3 3,-3 1.656,0 3,1.342 3,3 0,1.656 -1.344,3 -3,3"
             style="fill:#f0eff1;fill-opacity:1;fill-rule:nonzero;stroke:none"
             id="path8119" />
        </g>
        <g
           id="g8121"
           transform="translate(18.3164,14.4668)">
          <path
             d="m 0,0 1.684,-8.467 -0.75,0 -3.25,4 -3,-4 -0.75,0 L -4.633,0 c -2.162,0.906 -3.683,3.041 -3.683,5.533 0,3.315 2.687,6 6,6 3.312,0 6,-2.685 6,-6 C 3.684,3.041 2.162,0.906 0,0 m -12.316,-10.467 20,0 0,24 -20,0 0,-24 z"
             style="fill:#f0eff1;fill-opacity:1;fill-rule:nonzero;stroke:none"
             id="path8123" />
        </g>
      </g>
    </g>
  </g>
</svg>
