<?xml version="1.0" encoding="UTF-8" standalone="no"?>
<svg
   xmlns:dc="http://purl.org/dc/elements/1.1/"
   xmlns:cc="http://creativecommons.org/ns#"
   xmlns:rdf="http://www.w3.org/1999/02/22-rdf-syntax-ns#"
   xmlns:svg="http://www.w3.org/2000/svg"
   xmlns="http://www.w3.org/2000/svg"
   version="1.1"
   id="svg2"
   viewBox="0 0 15.999999 15.999999"
   height="16"
   width="16">
  <defs
     id="defs4">
    <clipPath
       clipPathUnits="userSpaceOnUse"
       id="clipPath4164">
      <path
         d="M 0,32 32,32 32,0 0,0 0,32 Z"
         id="path4166" />
    </clipPath>
    <clipPath
       clipPathUnits="userSpaceOnUse"
       id="clipPath4176">
      <path
         d="M 0,32 32,32 32,0 0,0 0,32 Z"
         id="path4178" />
    </clipPath>
    <clipPath
       clipPathUnits="userSpaceOnUse"
       id="clipPath4188">
      <path
         d="M 0,32 32,32 32,0 0,0 0,32 Z"
         id="path4190" />
    </clipPath>
    <clipPath
       id="clipPath4166"
       clipPathUnits="userSpaceOnUse">
      <path
         id="path4168"
         d="M 0,32 32,32 32,0 0,0 0,32 Z" />
    </clipPath>
    <clipPath
       id="clipPath4178"
       clipPathUnits="userSpaceOnUse">
      <path
         id="path4180"
         d="M 0,32 32,32 32,0 0,0 0,32 Z" />
    </clipPath>
    <clipPath
       id="clipPath4219"
       clipPathUnits="userSpaceOnUse">
      <path
         id="path4221"
         d="M 0,32 32,32 32,0 0,0 0,32 Z" />
    </clipPath>
    <clipPath
       id="clipPath4231"
       clipPathUnits="userSpaceOnUse">
      <path
         id="path4233"
         d="M 0,32 32,32 32,0 0,0 0,32 Z" />
    </clipPath>
    <clipPath
       clipPathUnits="userSpaceOnUse"
       id="clipPath4167">
      <path
         d="M 0,32 32,32 32,0 0,0 0,32 Z"
         id="path4169" />
    </clipPath>
    <clipPath
       clipPathUnits="userSpaceOnUse"
       id="clipPath4187">
      <path
         d="M 0,32 32,32 32,0 0,0 0,32 Z"
         id="path4189" />
    </clipPath>
    <clipPath
       clipPathUnits="userSpaceOnUse"
       id="clipPath4211">
      <path
         d="M 0,32 32,32 32,0 0,0 0,32 Z"
         id="path4213" />
    </clipPath>
  </defs>
  <metadata
     id="metadata7">
    <rdf:RDF>
      <cc:Work
         rdf:about="">
        <dc:format>image/svg+xml</dc:format>
        <dc:type
           rdf:resource="http://purl.org/dc/dcmitype/StillImage" />
        <dc:title></dc:title>
      </cc:Work>
    </rdf:RDF>
  </metadata>
  <g
     id="g4161"
     transform="matrix(0.50000307,0,0,-0.50000307,-1.0000061e-4,16.000151)">
    <g
       id="g4163">
      <g
         id="g4165"
         clip-path="url(#clipPath4167)">
        <g
           id="g4171"
           transform="translate(18.3652,15.9053)">
          <path
             d="m 0,0 c -0.005,0.008 -0.029,0.046 -0.062,0.095 l 0.18,0 C 0.078,0.062 0.04,0.036 0,0 m -5.055,-6.125 c -0.343,0.117 -0.677,0.175 -1.011,0.175 -0.559,0 -1.08,-0.135 -1.536,-0.392 l 0.401,1.533 2.002,0.392 c 0.136,0.027 0.267,0.066 0.39,0.114 0.1,-0.286 0.217,-0.652 0.358,-1.117 -0.237,-0.282 -0.465,-0.547 -0.604,-0.705 m 18.69,21.22 -24,0 0,-12.079 c -0.559,-0.59 -1.086,-1.305 -1.584,-2.19 l -1.418,0.019 -1.473,-5.043 1.328,0 c 0,0 -1.256,-4.771 -1.291,-4.905 -0.15,0.023 -0.31,0.035 -0.48,0.035 -1.03,0 -1.717,-0.416 -2.11,-0.764 -0.627,-0.553 -0.972,-1.307 -0.972,-2.121 0,-0.878 0.4,-1.675 1.121,-2.237 0.599,-0.475 1.394,-0.715 2.365,-0.715 1.205,0 2.299,0.318 3.25,0.943 0.897,0.587 1.67,1.465 2.307,2.621 0.168,0.309 0.332,0.661 0.496,1.061 0.146,-0.304 0.346,-0.579 0.592,-0.816 0.388,-0.376 1.074,-0.823 2.132,-0.823 0.588,0 1.155,0.122 1.698,0.372 0.486,0.229 0.98,0.605 1.55,1.175 0.061,0.06 0.135,0.136 0.217,0.223 0.321,-0.506 0.705,-0.907 1.147,-1.195 0.582,-0.382 1.273,-0.575 2.053,-0.575 0.789,0 1.552,0.252 2.244,0.73 0.74,0.496 1.435,1.259 2.125,2.335 l 0.703,1.1 0,0.927 -3.262,1.839 -0.312,-0.419 c -0.071,0.192 -0.141,0.398 -0.213,0.614 0.304,-0.062 0.588,-0.093 0.859,-0.093 0.795,0 1.533,0.304 2.082,0.856 0.553,0.555 0.846,1.282 0.846,2.098 0,0.989 -0.405,1.638 -0.767,2.027 l 8.767,0 0,15 z"
             style="fill:#f6f6f6;fill-opacity:1;fill-rule:nonzero;stroke:none"
             id="path4173" />
        </g>
      </g>
    </g>
    <path
       d="m 18,21 1,0 0,5 -1,0 0,-5 z"
       style="fill:#424242;fill-opacity:1;fill-rule:nonzero;stroke:none"
       id="path4175" />
    <path
       d="m 23,22 -1,0 0,3 1,0 0,-3 z m -2,-1 3,0 0,5 -3,0 0,-5 z"
       style="fill:#424242;fill-opacity:1;fill-rule:nonzero;stroke:none"
       id="path4177" />
    <path
       d="m 26,21 1,0 0,5 -1,0 0,-5 z"
       style="fill:#424242;fill-opacity:1;fill-rule:nonzero;stroke:none"
       id="path4179" />
    <path
       d="m 15,22 -1,0 0,3 1,0 0,-3 z m 1,4 -3,0 0,-5 3,0 0,5 z"
       style="fill:#424242;fill-opacity:1;fill-rule:nonzero;stroke:none"
       id="path4181" />
    <g
       id="g4183">
      <g
         id="g4185"
         clip-path="url(#clipPath4187)">
        <g
           id="g4191"
           transform="translate(10,29)">
          <path
             d="m 0,0 0,-8.594 c 0.627,0.297 1.297,0.474 2,0.546 L 2,-2 18,-2 18,-9 5.402,-9 c 0.536,-0.531 0.848,-1.225 0.887,-2 L 20,-11 20,0 0,0 Z"
             style="fill:#424242;fill-opacity:1;fill-rule:nonzero;stroke:none"
             id="path4193" />
        </g>
        <g
           id="g4195"
           transform="translate(10.0566,14.7305)">
          <path
             d="M 0,0 C 0.371,1.476 0.863,2.557 1.477,3.237 1.848,3.663 2.211,3.875 2.566,3.875 2.639,3.875 2.695,3.856 2.74,3.815 2.787,3.773 2.811,3.723 2.811,3.657 2.811,3.6 2.76,3.487 2.658,3.324 2.563,3.162 2.512,3.007 2.512,2.861 2.512,2.657 2.59,2.481 2.746,2.337 2.904,2.19 3.1,2.118 3.34,2.118 3.598,2.118 3.814,2.207 3.986,2.386 4.162,2.563 4.25,2.804 4.25,3.106 4.25,3.451 4.121,3.73 3.857,3.945 3.596,4.162 3.176,4.27 2.602,4.27 1.701,4.27 0.885,4.014 0.154,3.499 -0.58,2.987 -1.275,2.139 -1.936,0.954 -2.164,0.546 -2.381,0.283 -2.584,0.167 -2.789,0.051 -3.115,-0.006 -3.564,0 l -0.299,-1.023 1.254,0 -1.838,-6.992 c -0.305,-1.149 -0.514,-1.856 -0.623,-2.124 -0.153,-0.389 -0.393,-0.722 -0.711,-0.998 -0.125,-0.11 -0.276,-0.167 -0.457,-0.167 -0.049,0 -0.09,0.016 -0.129,0.046 l -0.045,0.061 c 0,0.03 0.045,0.087 0.137,0.177 0.089,0.091 0.136,0.231 0.136,0.416 0,0.204 -0.074,0.375 -0.218,0.506 -0.143,0.136 -0.35,0.204 -0.618,0.204 -0.328,0 -0.586,-0.086 -0.787,-0.264 -0.197,-0.174 -0.295,-0.382 -0.295,-0.62 0,-0.257 0.119,-0.48 0.362,-0.669 0.238,-0.189 0.613,-0.283 1.125,-0.283 0.808,0 1.527,0.204 2.154,0.616 0.629,0.412 1.174,1.047 1.645,1.901 0.464,0.858 0.947,2.241 1.439,4.15 l 1.055,4.04 1.267,0 L 1.307,0 0,0 Z"
             style="fill:#424242;fill-opacity:1;fill-rule:nonzero;stroke:none"
             id="path4197" />
        </g>
        <g
           id="g4199"
           transform="translate(20.9727,14.9434)">
          <path
             d="M 0,0 C -0.291,0 -0.57,-0.068 -0.832,-0.205 -1.092,-0.343 -1.424,-0.638 -1.826,-1.093 -2.125,-1.432 -2.57,-2.022 -3.158,-2.87 -3.393,-1.825 -3.793,-0.868 -4.367,0 l -3.824,0 0,-1.492 c 0.234,0.046 1.054,0.705 1.214,0.705 0.315,0 0.571,-0.132 0.776,-0.394 0.324,-0.409 0.775,-1.65 1.351,-3.725 -0.451,-0.59 -1.306,-1.579 -1.474,-1.761 C -6.6,-6.958 -6.83,-7.146 -7.008,-7.233 -7.145,-7.306 -7.303,-7.34 -7.477,-7.34 c -0.13,0 -0.349,0.069 -0.648,0.212 -0.203,0.091 -0.387,0.14 -0.549,0.14 -0.306,0 -0.558,-0.098 -0.758,-0.291 -0.199,-0.193 -0.295,-0.435 -0.295,-0.734 0,-0.279 0.09,-0.506 0.276,-0.683 0.18,-0.174 0.43,-0.261 0.742,-0.261 0.299,0 0.582,0.061 0.846,0.182 0.263,0.124 0.593,0.384 0.994,0.786 0.4,0.396 1.496,1.636 2.197,2.505 0.27,-0.828 0.791,-2.037 0.988,-2.412 0.198,-0.374 0.424,-0.645 0.68,-0.812 0.254,-0.166 0.574,-0.249 0.959,-0.249 0.373,0 0.75,0.128 1.133,0.393 0.504,0.336 1.021,0.922 1.551,1.75 l -0.323,0.181 c -0.363,-0.487 -0.63,-0.794 -0.802,-0.918 -0.114,-0.076 -0.25,-0.114 -0.409,-0.114 -0.183,0 -0.367,0.114 -0.548,0.345 -0.307,0.382 -0.998,2.052 -1.508,3.802 0.455,0.784 0.84,1.292 1.15,1.533 0.231,0.174 0.471,0.261 0.723,0.261 0.094,0 0.269,-0.033 0.515,-0.099 0.252,-0.067 0.471,-0.101 0.663,-0.101 0.263,0 0.488,0.089 0.664,0.266 0.177,0.179 0.263,0.408 0.263,0.688 0,0.296 -0.086,0.533 -0.263,0.708 C 0.588,-0.086 0.332,0 0,0"
             style="fill:#424242;fill-opacity:1;fill-rule:nonzero;stroke:none"
             id="path4201" />
        </g>
      </g>
    </g>
    <path
       d="m 22,22 1.001,0 0,3.001 -1.001,0 L 22,22 Z"
       style="fill:#f0eff1;fill-opacity:1;fill-rule:nonzero;stroke:none"
       id="path4203" />
    <path
       d="m 14,22 1,0 0,3.001 -1,0 L 14,22 Z"
       style="fill:#f0eff1;fill-opacity:1;fill-rule:nonzero;stroke:none"
       id="path4205" />
    <g
       id="g4207">
      <g
         id="g4209"
         clip-path="url(#clipPath4211)">
        <path
           d="m 27,21 -1,0 0,5 1,0 0,-5 z m -3,0 -3,0 0,5 3,0 0,-5 z m -5,0 -1,0 0,5 1,0 0,-5 z m -3,0 -3,0 0,5 3,0 0,-5 z m -4,6 0,-6.048 C 12.218,20.974 12.434,21 12.658,21 13.711,21 14.563,20.736 15.189,20.216 15.27,20.151 15.33,20.071 15.402,20 L 28,20 l 0,7 -16,0 z"
           style="fill:#f0eff1;fill-opacity:1;fill-rule:nonzero;stroke:none"
           id="path4215" />
      </g>
    </g>
  </g>
</svg>
