<?xml version="1.0" encoding="UTF-8" standalone="no"?>
<svg
   xmlns:dc="http://purl.org/dc/elements/1.1/"
   xmlns:cc="http://creativecommons.org/ns#"
   xmlns:rdf="http://www.w3.org/1999/02/22-rdf-syntax-ns#"
   xmlns:svg="http://www.w3.org/2000/svg"
   xmlns="http://www.w3.org/2000/svg"
   viewBox="0 0 16 16"
   height="16"
   width="16"
   xml:space="preserve"
   version="1.1"
   id="svg8151"><metadata
     id="metadata8157"><rdf:RDF><cc:Work
         rdf:about=""><dc:format>image/svg+xml</dc:format><dc:type
           rdf:resource="http://purl.org/dc/dcmitype/StillImage" /><dc:title></dc:title></cc:Work></rdf:RDF></metadata><defs
     id="defs8155"><clipPath
       id="clipPath8165"
       clipPathUnits="userSpaceOnUse"><path
         id="path8167"
         d="M 0,16 16,16 16,0 0,0 0,16 Z" /></clipPath><clipPath
       id="clipPath8177"
       clipPathUnits="userSpaceOnUse"><path
         id="path8179"
         d="M 0,16 16,16 16,0 0,0 0,16 Z" /></clipPath><clipPath
       id="clipPath8189"
       clipPathUnits="userSpaceOnUse"><path
         id="path8191"
         d="M 0,16 16,16 16,0 0,0 0,16 Z" /></clipPath><clipPath
       id="clipPath8201"
       clipPathUnits="userSpaceOnUse"><path
         id="path8203"
         d="M 0,16 16,16 16,0 0,0 0,16 Z" /></clipPath></defs><g
     transform="matrix(1.25,0,0,-1.25,0,16)"
     id="g8159"><g
       transform="matrix(0.80001,0,0,0.80001,0,1.9999e-5)"
       id="g8161"><g
         clip-path="url(#clipPath8165)"
         id="g8163"><g
           transform="translate(15.5518,10.4971)"
           id="g8169"><path
             id="path8171"
             style="fill:#f6f6f6;fill-opacity:1;fill-rule:nonzero;stroke:none"
             d="m 0,0 -0.595,1.318 -2.957,-2.957 -0.586,0.586 2.957,2.956 -1.319,0.596 c -0.658,0.297 -1.349,0.448 -2.052,0.448 -0.726,0 -1.416,-0.159 -2.041,-0.44 -0.246,1.691 -1.701,2.996 -3.459,2.996 -1.929,0 -3.5,-1.57 -3.5,-3.5 0,-0.322 0.046,-0.639 0.137,-0.949 l -2.137,-2.137 0,-0.828 2,-2 2.551,2.551 c 0.31,-0.091 0.627,-0.137 0.949,-0.137 0.184,0 0.364,0.018 0.54,0.046 -0.024,-0.198 -0.04,-0.398 -0.04,-0.602 0,-0.468 0.068,-0.933 0.2,-1.385 l -2.907,-2.908 c -0.686,-0.685 -1.253,-2.162 0,-3.414 0.61,-0.609 1.244,-0.737 1.67,-0.737 0.958,0 1.621,0.614 1.744,0.737 l 2.907,2.908 c 0.454,-0.133 0.917,-0.201 1.386,-0.201 2.757,0 5,2.243 5,5 C 0.448,-1.35 0.298,-0.659 0,0" /></g></g></g><g
       transform="matrix(0.80001,0,0,0.80001,0,1.9999e-5)"
       id="g8173"><g
         clip-path="url(#clipPath8177)"
         id="g8175"><g
           transform="translate(14.6406,10.085)"
           id="g8181"><path
             id="path8183"
             style="fill:#424242;fill-opacity:1;fill-rule:nonzero;stroke:none"
             d="m 0,0 -2.641,-2.641 -2,2 L -2,2 c -0.502,0.227 -1.055,0.359 -1.641,0.359 -0.754,0 -1.458,-0.213 -2.06,-0.576 -0.196,-1.073 -0.883,-1.975 -1.82,-2.468 -0.075,-0.306 -0.12,-0.626 -0.12,-0.956 0,-0.586 0.133,-1.138 0.36,-1.64 l -3.36,-3.36 c 0,0 -1,-1 0,-2 1,-1 2,0 2,0 l 3.36,3.36 c 0.502,-0.227 1.054,-0.36 1.64,-0.36 2.209,0 4,1.791 4,4 C 0.359,-1.055 0.227,-0.502 0,0" /></g></g></g><g
       transform="matrix(0.80001,0,0,0.80001,0,1.9999e-5)"
       id="g8185"><g
         clip-path="url(#clipPath8189)"
         id="g8187"><g
           transform="translate(4,12.5)"
           id="g8193"><path
             id="path8195"
             style="fill:#00539c;fill-opacity:1;fill-rule:nonzero;stroke:none"
             d="M 0,0 C 0,0.828 0.672,1.5 1.5,1.5 2.328,1.5 3,0.828 3,0 3,-0.828 2.328,-1.5 1.5,-1.5 0.672,-1.5 0,-0.828 0,0 M -0.688,-1.188 -3,-3.5 l 1,-1 2.313,2.312 C 0.668,-2.381 1.068,-2.5 1.5,-2.5 2.881,-2.5 4,-1.381 4,0 4,1.381 2.881,2.5 1.5,2.5 0.119,2.5 -1,1.381 -1,0 c 0,-0.432 0.119,-0.832 0.312,-1.188" /></g></g></g><g
       transform="matrix(0.80001,0,0,0.80001,0,1.9999e-5)"
       id="g8197"><g
         clip-path="url(#clipPath8201)"
         id="g8199"><g
           transform="translate(5.5,14)"
           id="g8205"><path
             id="path8207"
             style="fill:#f0eff1;fill-opacity:1;fill-rule:nonzero;stroke:none"
             d="M 0,0 C 0.828,0 1.5,-0.672 1.5,-1.5 1.5,-2.328 0.828,-3 0,-3 c -0.828,0 -1.5,0.672 -1.5,1.5 0,0.828 0.672,1.5 1.5,1.5" /></g></g></g></g></svg>