<?xml version="1.0" encoding="UTF-8" standalone="no"?>
<svg
   xmlns:dc="http://purl.org/dc/elements/1.1/"
   xmlns:cc="http://creativecommons.org/ns#"
   xmlns:rdf="http://www.w3.org/1999/02/22-rdf-syntax-ns#"
   xmlns:svg="http://www.w3.org/2000/svg"
   xmlns="http://www.w3.org/2000/svg"
   version="1.1"
   id="svg2"
   viewBox="0 0 15.999999 15.999999"
   height="16"
   width="16">
  <defs
     id="defs4">
    <clipPath
       clipPathUnits="userSpaceOnUse"
       id="clipPath4164">
      <path
         d="M 0,32 32,32 32,0 0,0 0,32 Z"
         id="path4166" />
    </clipPath>
    <clipPath
       clipPathUnits="userSpaceOnUse"
       id="clipPath4176">
      <path
         d="M 0,32 32,32 32,0 0,0 0,32 Z"
         id="path4178" />
    </clipPath>
    <clipPath
       clipPathUnits="userSpaceOnUse"
       id="clipPath4188">
      <path
         d="M 0,32 32,32 32,0 0,0 0,32 Z"
         id="path4190" />
    </clipPath>
    <clipPath
       id="clipPath4166"
       clipPathUnits="userSpaceOnUse">
      <path
         id="path4168"
         d="M 0,32 32,32 32,0 0,0 0,32 Z" />
    </clipPath>
    <clipPath
       id="clipPath4178"
       clipPathUnits="userSpaceOnUse">
      <path
         id="path4180"
         d="M 0,32 32,32 32,0 0,0 0,32 Z" />
    </clipPath>
    <clipPath
       id="clipPath4219"
       clipPathUnits="userSpaceOnUse">
      <path
         id="path4221"
         d="M 0,32 32,32 32,0 0,0 0,32 Z" />
    </clipPath>
    <clipPath
       id="clipPath4231"
       clipPathUnits="userSpaceOnUse">
      <path
         id="path4233"
         d="M 0,32 32,32 32,0 0,0 0,32 Z" />
    </clipPath>
    <clipPath
       clipPathUnits="userSpaceOnUse"
       id="clipPath8109">
      <path
         d="M 0,32 32,32 32,0 0,0 0,32 Z"
         id="path8111" />
    </clipPath>
    <clipPath
       clipPathUnits="userSpaceOnUse"
       id="clipPath8121">
      <path
         d="M 0,32 32,32 32,0 0,0 0,32 Z"
         id="path8123" />
    </clipPath>
    <clipPath
       clipPathUnits="userSpaceOnUse"
       id="clipPath8141">
      <path
         d="M 0,32 32,32 32,0 0,0 0,32 Z"
         id="path8143" />
    </clipPath>
  </defs>
  <metadata
     id="metadata7">
    <rdf:RDF>
      <cc:Work
         rdf:about="">
        <dc:format>image/svg+xml</dc:format>
        <dc:type
           rdf:resource="http://purl.org/dc/dcmitype/StillImage" />
        <dc:title></dc:title>
      </cc:Work>
    </rdf:RDF>
  </metadata>
  <g
     id="g8103"
     transform="matrix(0.50000775,0,0,-0.50000775,0,15.999998)">
    <g
       id="g8105">
      <g
         id="g8107"
         clip-path="url(#clipPath8109)">
        <g
           id="g8113"
           transform="translate(28.6445,16)">
          <path
             d="m 0,0 c 2.043,1.651 3.355,4.174 3.355,7 0,4.963 -4.037,9 -9,9 -2.113,0 -4.085,-0.724 -5.65,-2 l -12.178,0 -5.172,-5.172 0,-3.656 3.172,-3.172 12.368,0 c 0.509,-0.766 1.131,-1.425 1.824,-1.989 C -11.286,0.007 -11.291,0.004 -11.295,0 l -12.178,0 -5.172,-5.172 0,-3.656 3.172,-3.172 12.368,0 c 1.658,-2.495 4.414,-4 7.46,-4 4.963,0 9,4.037 9,9 0,2.826 -1.312,5.349 -3.355,7"
             style="fill:#f6f6f6;fill-opacity:1;fill-rule:nonzero;stroke:none"
             id="path8115" />
        </g>
      </g>
    </g>
    <g
       id="g8117">
      <g
         id="g8119"
         clip-path="url(#clipPath8121)">
        <g
           id="g8125"
           transform="translate(24,22)">
          <path
             d="M 0,0 C -1.105,0 -2,0.896 -2,2 -2,3.104 -1.105,4 0,4 1.105,4 2,3.104 2,2 2,0.896 1.105,0 0,0 M 6,1 C 6,4.866 2.865,8 -1,8 -3.787,8 -6.174,6.358 -7.301,4 L -8,4 l 0,2 -2,0 -2,-2 0,2 -2,0 -2,-2 0,2 -2,0 -4,-4 0,-2 2,-2 12.699,0 c 1.127,-2.358 3.514,-4 6.301,-4 3.865,0 7,3.134 7,7"
             style="fill:#424242;fill-opacity:1;fill-rule:nonzero;stroke:none"
             id="path8127" />
        </g>
        <g
           id="g8129"
           transform="translate(23,4)">
          <path
             d="M 0,0 C -2.42,0 -4.436,1.718 -4.898,4 L -19,4 l 0,2 2,2 1,0 0,-2 1,0 2,2 1,0 0,-2 1,0 2,2 1,0 0,-2 3.102,0 C -4.436,8.282 -2.42,10 0,10 2.762,10 5,7.762 5,5 5,2.238 2.762,0 0,0 M 0,12 C -2.787,12 -5.174,10.358 -6.301,8 L -7,8 l 0,2 -2,0 -2,-2 0,2 -2,0 -2,-2 0,2 -2,0 -4,-4 0,-2 2,-2 12.699,0 C -5.174,-0.358 -2.787,-2 0,-2 3.865,-2 7,1.134 7,5 7,8.866 3.865,12 0,12"
             style="fill:#424242;fill-opacity:1;fill-rule:nonzero;stroke:none"
             id="path8131" />
        </g>
        <g
           id="g8133"
           transform="translate(24,12)">
          <path
             d="m 0,0 c -1.105,0 -2,-0.896 -2,-2 0,-1.104 0.895,-2 2,-2 1.105,0 2,0.896 2,2 0,1.104 -0.895,2 -2,2"
             style="fill:#424242;fill-opacity:1;fill-rule:nonzero;stroke:none"
             id="path8135" />
        </g>
      </g>
    </g>
    <g
       id="g8137">
      <g
         id="g8139"
         clip-path="url(#clipPath8141)">
        <g
           id="g8145"
           transform="translate(24,8)">
          <path
             d="M 0,0 C -1.105,0 -2,0.896 -2,2 -2,3.104 -1.105,4 0,4 1.105,4 2,3.104 2,2 2,0.896 1.105,0 0,0 M -1,6 C -3.42,6 -5.436,4.282 -5.898,2 L -9,2 l 0,2 -1,0 -2,-2 -1,0 0,2 -1,0 -2,-2 -1,0 0,2 -1,0 -2,-2 0,-2 14.102,0 C -5.436,-2.282 -3.42,-4 -1,-4 1.762,-4 4,-1.762 4,1 4,3.762 1.762,6 -1,6"
             style="fill:#f0eff1;fill-opacity:1;fill-rule:nonzero;stroke:none"
             id="path8147" />
        </g>
      </g>
    </g>
  </g>
</svg>
