<?xml version="1.0" encoding="UTF-8" standalone="no"?>
<svg
   xmlns:dc="http://purl.org/dc/elements/1.1/"
   xmlns:cc="http://creativecommons.org/ns#"
   xmlns:rdf="http://www.w3.org/1999/02/22-rdf-syntax-ns#"
   xmlns:svg="http://www.w3.org/2000/svg"
   xmlns="http://www.w3.org/2000/svg"
   version="1.1"
   id="svg2"
   viewBox="0 0 15.999999 15.999999"
   height="16"
   width="16">
  <defs
     id="defs4">
    <clipPath
       clipPathUnits="userSpaceOnUse"
       id="clipPath4164">
      <path
         d="M 0,32 32,32 32,0 0,0 0,32 Z"
         id="path4166" />
    </clipPath>
    <clipPath
       clipPathUnits="userSpaceOnUse"
       id="clipPath4176">
      <path
         d="M 0,32 32,32 32,0 0,0 0,32 Z"
         id="path4178" />
    </clipPath>
    <clipPath
       clipPathUnits="userSpaceOnUse"
       id="clipPath4188">
      <path
         d="M 0,32 32,32 32,0 0,0 0,32 Z"
         id="path4190" />
    </clipPath>
    <clipPath
       id="clipPath4166"
       clipPathUnits="userSpaceOnUse">
      <path
         id="path4168"
         d="M 0,32 32,32 32,0 0,0 0,32 Z" />
    </clipPath>
    <clipPath
       id="clipPath4178"
       clipPathUnits="userSpaceOnUse">
      <path
         id="path4180"
         d="M 0,32 32,32 32,0 0,0 0,32 Z" />
    </clipPath>
    <clipPath
       id="clipPath4219"
       clipPathUnits="userSpaceOnUse">
      <path
         id="path4221"
         d="M 0,32 32,32 32,0 0,0 0,32 Z" />
    </clipPath>
    <clipPath
       id="clipPath4231"
       clipPathUnits="userSpaceOnUse">
      <path
         id="path4233"
         d="M 0,32 32,32 32,0 0,0 0,32 Z" />
    </clipPath>
    <clipPath
       clipPathUnits="userSpaceOnUse"
       id="clipPath4167">
      <path
         d="M 0,32 32,32 32,0 0,0 0,32 Z"
         id="path4169" />
    </clipPath>
    <clipPath
       clipPathUnits="userSpaceOnUse"
       id="clipPath4179">
      <path
         d="M 0,32 32,32 32,0 0,0 0,32 Z"
         id="path4181" />
    </clipPath>
    <clipPath
       clipPathUnits="userSpaceOnUse"
       id="clipPath4223">
      <path
         d="M 0,32 32,32 32,0 0,0 0,32 Z"
         id="path4225" />
    </clipPath>
  </defs>
  <metadata
     id="metadata7">
    <rdf:RDF>
      <cc:Work
         rdf:about="">
        <dc:format>image/svg+xml</dc:format>
        <dc:type
           rdf:resource="http://purl.org/dc/dcmitype/StillImage" />
        <dc:title></dc:title>
      </cc:Work>
    </rdf:RDF>
  </metadata>
  <g
     id="g4161"
     transform="matrix(0.51612897,0,0,-0.51612897,0,15.999998)">
    <g
       id="g4163">
      <g
         id="g4165"
         clip-path="url(#clipPath4167)">
        <g
           id="g4171"
           transform="translate(31,30)">
          <path
             d="m 0,0 -29,0 0,-24.35 c -0.447,-0.153 -0.795,-0.372 -1.027,-0.577 -0.628,-0.552 -0.973,-1.305 -0.973,-2.12 0,-0.878 0.401,-1.676 1.117,-2.235 0.599,-0.477 1.396,-0.718 2.369,-0.718 1.208,0 2.304,0.319 3.247,0.942 0.434,0.284 0.838,0.638 1.214,1.058 L 0,-28 0,0 Z"
             style="fill:#f6f6f6;fill-opacity:1;fill-rule:nonzero;stroke:none"
             id="path4173" />
        </g>
      </g>
    </g>
    <g
       id="g4175">
      <g
         id="g4177"
         clip-path="url(#clipPath4179)">
        <path
           d="m 28,20 -5,0 0,4 5,0 0,-4 z m -6,0 -5,0 0,4 5,0 0,-4 z m -12,0 -5,0 0,4 5,0 0,-4 z M 4,28 4,12.331 4.999,15.75 5,15.75 5,19 9.283,19 c 1.011,0.653 2.144,1 3.375,1 L 11,20 l 0,4 5,0 0,-4 -3.342,0 c 1.052,0 1.904,-0.264 2.532,-0.784 0.08,-0.065 0.141,-0.145 0.212,-0.216 L 16,19 16,18.19 c 0.199,-0.411 0.307,-0.869 0.307,-1.354 0,-0.314 -0.041,-0.612 -0.121,-0.893 l 0.814,0 0,3.057 5,0 0,-3.227 c 0.431,-0.139 0.761,-0.34 1,-0.55 l 0,3.777 5,0 0,-4 -4.767,0 c 0.216,-0.229 0.434,-0.562 0.585,-1 l 4.182,0 0,-4 -5,0 0,0.749 C 22.703,10.491 22.366,10.3 22,10.18 L 22,10 20.252,10 C 20.311,9.826 20.368,9.655 20.426,9.497 L 20.739,9.916 23,8.642 23,9 28,9 28,5 23,5 23,5.622 C 22.523,4.941 22.041,4.404 21.54,4 l 7.46,0 0,1 0,4 0,19 -25,0 z"
           style="fill:#424242;fill-opacity:1;fill-rule:nonzero;stroke:none"
           id="path4183" />
        <g
           id="g4185"
           transform="translate(11.0469,12.707)">
          <path
             d="m 0,0 0.316,1.023 -1.306,0 C -0.619,2.5 -0.127,3.58 0.486,4.262 0.857,4.688 1.221,4.898 1.576,4.898 1.648,4.898 1.705,4.879 1.75,4.84 1.797,4.797 1.82,4.746 1.82,4.68 1.82,4.623 1.77,4.512 1.668,4.348 1.572,4.186 1.521,4.031 1.521,3.885 1.521,3.68 1.6,3.504 1.756,3.359 1.914,3.215 2.109,3.141 2.35,3.141 2.607,3.141 2.824,3.23 2.996,3.41 3.172,3.586 3.26,3.828 3.26,4.129 3.26,4.475 3.131,4.754 2.867,4.969 2.605,5.186 2.186,5.293 1.611,5.293 0.711,5.293 -0.105,5.037 -0.836,4.523 -1.57,4.012 -2.266,3.162 -2.926,1.977 -3.154,1.57 -3.371,1.307 -3.574,1.191 -3.779,1.074 -4.105,1.018 -4.555,1.023 L -4.854,0 -3.6,0 -5.438,-6.992 c -0.304,-1.149 -0.513,-1.856 -0.623,-2.123 -0.152,-0.389 -0.392,-0.723 -0.71,-0.998 -0.125,-0.11 -0.276,-0.168 -0.458,-0.168 -0.048,0 -0.089,0.015 -0.128,0.047 l -0.045,0.06 c 0,0.029 0.045,0.088 0.136,0.178 0.09,0.09 0.137,0.23 0.137,0.414 0,0.205 -0.074,0.375 -0.219,0.508 -0.142,0.136 -0.349,0.203 -0.617,0.203 -0.328,0 -0.586,-0.086 -0.787,-0.264 -0.197,-0.174 -0.295,-0.381 -0.295,-0.619 0,-0.258 0.119,-0.48 0.361,-0.67 0.239,-0.189 0.614,-0.283 1.125,-0.283 0.809,0 1.528,0.203 2.155,0.617 0.629,0.41 1.174,1.047 1.644,1.901 0.465,0.857 0.948,2.24 1.44,4.15 L -1.268,0 0,0 Z"
             style="fill:#424242;fill-opacity:1;fill-rule:nonzero;stroke:none"
             id="path4187" />
        </g>
        <g
           id="g4189"
           transform="translate(21.2891,7.3105)">
          <path
             d="m 0,0 c -0.363,-0.486 -0.631,-0.795 -0.803,-0.918 -0.113,-0.076 -0.25,-0.115 -0.408,-0.115 -0.184,0 -0.367,0.115 -0.549,0.345 -0.306,0.381 -0.998,2.053 -1.508,3.803 0.455,0.783 0.84,1.293 1.151,1.531 0.23,0.176 0.471,0.262 0.722,0.262 0.094,0 0.27,-0.031 0.516,-0.097 0.252,-0.067 0.471,-0.102 0.662,-0.102 0.264,0 0.488,0.09 0.664,0.266 0.178,0.179 0.264,0.408 0.264,0.687 0,0.297 -0.086,0.535 -0.264,0.709 -0.176,0.176 -0.431,0.262 -0.763,0.262 -0.291,0 -0.571,-0.069 -0.832,-0.205 -0.26,-0.137 -0.592,-0.434 -0.995,-0.887 -0.298,-0.34 -0.744,-0.93 -1.332,-1.777 -0.234,1.043 -0.634,2 -1.209,2.869 l -3.824,0 0,-1.492 c 0.235,0.045 1.055,0.705 1.215,0.705 0.314,0 0.57,-0.133 0.775,-0.395 0.325,-0.408 0.776,-1.648 1.352,-3.724 -0.451,-0.59 -1.307,-1.581 -1.475,-1.76 -0.275,-0.293 -0.505,-0.481 -0.683,-0.567 -0.137,-0.074 -0.295,-0.107 -0.469,-0.107 -0.131,0 -0.35,0.068 -0.648,0.213 -0.204,0.09 -0.387,0.139 -0.549,0.139 -0.307,0 -0.559,-0.098 -0.758,-0.291 -0.199,-0.192 -0.295,-0.434 -0.295,-0.735 0,-0.277 0.09,-0.504 0.275,-0.683 0.18,-0.172 0.43,-0.26 0.743,-0.26 0.298,0 0.582,0.06 0.845,0.181 0.264,0.125 0.594,0.385 0.994,0.786 0.401,0.398 1.497,1.636 2.198,2.505 0.269,-0.826 0.791,-2.037 0.988,-2.412 0.197,-0.373 0.424,-0.644 0.68,-0.812 0.254,-0.164 0.574,-0.248 0.959,-0.248 0.373,0 0.75,0.127 1.132,0.392 0.504,0.336 1.022,0.922 1.551,1.75 L 0,0 Z"
             style="fill:#424242;fill-opacity:1;fill-rule:nonzero;stroke:none"
             id="path4191" />
        </g>
        <g
           id="g4193"
           transform="translate(13.9131,9.4854)">
          <path
             d="m 0,0 c -0.057,0.191 -0.108,0.355 -0.159,0.515 l -2.614,0 -0.376,-1.437 c 0.074,0.042 0.159,0.06 0.236,0.095 l 0,0.342 2.5,0 C -0.289,-0.342 -0.151,-0.18 0,0"
             style="fill:#424242;fill-opacity:1;fill-rule:nonzero;stroke:none"
             id="path4195" />
        </g>
        <g
           id="g4197"
           transform="translate(15.5142,4.5352)">
          <path
             d="m 0,0 c -0.206,-0.206 -0.399,-0.378 -0.588,-0.535 l 1.423,0 C 0.608,-0.314 0.397,-0.068 0.213,0.221 0.133,0.136 0.062,0.062 0,0"
             style="fill:#424242;fill-opacity:1;fill-rule:nonzero;stroke:none"
             id="path4199" />
        </g>
        <g
           id="g4201"
           transform="translate(4,10.707)">
          <path
             d="M 0,0 0,-1.707 0,-3.244 C 0.375,-1.82 0.854,0 0.854,0 L 0,0 Z"
             style="fill:#424242;fill-opacity:1;fill-rule:nonzero;stroke:none"
             id="path4203" />
        </g>
        <g
           id="g4205"
           transform="translate(9.2622,4)">
          <path
             d="M 0,0 0.704,0 C 0.537,0.194 0.388,0.4 0.278,0.627 0.186,0.402 0.093,0.195 0,0"
             style="fill:#424242;fill-opacity:1;fill-rule:nonzero;stroke:none"
             id="path4207" />
        </g>
      </g>
    </g>
    <path
       d="m 23,20 5,0 0,4 -5,0 0,-4 z"
       style="fill:#f0eff1;fill-opacity:1;fill-rule:nonzero;stroke:none"
       id="path4209" />
    <path
       d="m 17,20 5,0 0,4 -5,0 0,-4 z"
       style="fill:#f0eff1;fill-opacity:1;fill-rule:nonzero;stroke:none"
       id="path4211" />
    <path
       d="m 11,20 5,0 0,4 -5,0 0,-4 z"
       style="fill:#f0eff1;fill-opacity:1;fill-rule:nonzero;stroke:none"
       id="path4213" />
    <path
       d="m 5,20 5,0 0,4 -5,0 0,-4 z"
       style="fill:#f0eff1;fill-opacity:1;fill-rule:nonzero;stroke:none"
       id="path4215" />
    <path
       d="m 23,5 5,0 0,4 -5,0 0,-4 z"
       style="fill:#f0eff1;fill-opacity:1;fill-rule:nonzero;stroke:none"
       id="path4217" />
    <g
       id="g4219">
      <g
         id="g4221"
         clip-path="url(#clipPath4223)">
        <g
           id="g4227"
           transform="translate(5,15.75)">
          <path
             d="M 0,0 1.416,-0.019 C 2.22,1.41 3.089,2.439 4.067,3.121 4.137,3.17 4.212,3.204 4.283,3.25 L 0,3.25 0,0 Z"
             style="fill:#f0eff1;fill-opacity:1;fill-rule:nonzero;stroke:none"
             id="path4229" />
        </g>
        <g
           id="g4231"
           transform="translate(17,15.9434)">
          <path
             d="m 0,0 0.682,0 c 0,0 0.456,-0.69 0.622,-0.943 l 0.179,0 c 0.25,0.211 0.49,0.383 0.726,0.507 C 2.764,-0.146 3.355,0 3.973,0 4.373,0 4.703,-0.073 5,-0.17 l 0,3.227 -5,0 L 0,0 Z"
             style="fill:#f0eff1;fill-opacity:1;fill-rule:nonzero;stroke:none"
             id="path4233-3" />
        </g>
        <g
           id="g4235"
           transform="translate(23,15.2231)">
          <path
             d="m 0,0 c 0.049,-0.042 0.108,-0.086 0.15,-0.127 0.028,-0.027 0.056,-0.067 0.083,-0.096 l 4.767,0 0,4 -5,0 L 0,0 Z"
             style="fill:#f0eff1;fill-opacity:1;fill-rule:nonzero;stroke:none"
             id="path4237" />
        </g>
        <g
           id="g4239"
           transform="translate(24,12.9727)">
          <path
             d="M 0,0 C 0,-0.813 -0.291,-1.537 -0.842,-2.094 -0.891,-2.143 -0.948,-2.179 -1,-2.224 l 0,-0.749 5,0 0,4 -4.182,0 C -0.078,0.73 0,0.4 0,0"
             style="fill:#f0eff1;fill-opacity:1;fill-rule:nonzero;stroke:none"
             id="path4241" />
        </g>
        <g
           id="g4243"
           transform="translate(13.1577,10.4873)">
          <path
             d="m 0,0 -1.991,-0.382 -0.027,-0.105 2.615,0 C 0.525,-0.26 0.458,-0.054 0.4,0.115 0.273,0.066 0.141,0.026 0,0"
             style="fill:#f0eff1;fill-opacity:1;fill-rule:nonzero;stroke:none"
             id="path4245" />
        </g>
        <g
           id="g4247"
           transform="translate(20.2129,10.1133)">
          <path
             d="m 0,0 c 0.014,-0.04 0.026,-0.074 0.039,-0.113 l 1.748,0 0,0.179 C 1.491,-0.031 1.182,-0.094 0.859,-0.094 0.589,-0.094 0.305,-0.063 0,0"
             style="fill:#f0eff1;fill-opacity:1;fill-rule:nonzero;stroke:none"
             id="path4249" />
        </g>
        <g
           id="g4251"
           transform="translate(11,8.6582)">
          <path
             d="M 0,0 C 0.398,0.182 0.83,0.297 1.299,0.297 1.632,0.297 1.965,0.239 2.311,0.123 2.36,0.18 2.431,0.263 2.5,0.342 L 0,0.342 0,0 Z"
             style="fill:#f0eff1;fill-opacity:1;fill-rule:nonzero;stroke:none"
             id="path4253" />
        </g>
        <g
           id="g4255"
           transform="translate(16,18.1899)">
          <path
             d="m 0,0 0,0.81 -0.598,0 C -0.355,0.569 -0.146,0.302 0,0"
             style="fill:#f0eff1;fill-opacity:1;fill-rule:nonzero;stroke:none"
             id="path4257" />
        </g>
      </g>
    </g>
  </g>
</svg>
