<?xml version="1.0" encoding="UTF-8" standalone="no"?>
<svg
   xmlns:dc="http://purl.org/dc/elements/1.1/"
   xmlns:cc="http://creativecommons.org/ns#"
   xmlns:rdf="http://www.w3.org/1999/02/22-rdf-syntax-ns#"
   xmlns:svg="http://www.w3.org/2000/svg"
   xmlns="http://www.w3.org/2000/svg"
   version="1.1"
   id="svg2"
   viewBox="0 0 15.999999 15.999999"
   height="16"
   width="16">
  <defs
     id="defs4">
    <clipPath
       clipPathUnits="userSpaceOnUse"
       id="clipPath4164">
      <path
         d="M 0,32 32,32 32,0 0,0 0,32 Z"
         id="path4166" />
    </clipPath>
    <clipPath
       clipPathUnits="userSpaceOnUse"
       id="clipPath4176">
      <path
         d="M 0,32 32,32 32,0 0,0 0,32 Z"
         id="path4178" />
    </clipPath>
    <clipPath
       clipPathUnits="userSpaceOnUse"
       id="clipPath4188">
      <path
         d="M 0,32 32,32 32,0 0,0 0,32 Z"
         id="path4190" />
    </clipPath>
    <clipPath
       id="clipPath4166"
       clipPathUnits="userSpaceOnUse">
      <path
         id="path4168"
         d="M 0,32 32,32 32,0 0,0 0,32 Z" />
    </clipPath>
    <clipPath
       id="clipPath4178"
       clipPathUnits="userSpaceOnUse">
      <path
         id="path4180"
         d="M 0,32 32,32 32,0 0,0 0,32 Z" />
    </clipPath>
    <clipPath
       id="clipPath4219"
       clipPathUnits="userSpaceOnUse">
      <path
         id="path4221"
         d="M 0,32 32,32 32,0 0,0 0,32 Z" />
    </clipPath>
    <clipPath
       id="clipPath4231"
       clipPathUnits="userSpaceOnUse">
      <path
         id="path4233"
         d="M 0,32 32,32 32,0 0,0 0,32 Z" />
    </clipPath>
  </defs>
  <metadata
     id="metadata7">
    <rdf:RDF>
      <cc:Work
         rdf:about="">
        <dc:format>image/svg+xml</dc:format>
        <dc:type
           rdf:resource="http://purl.org/dc/dcmitype/StillImage" />
        <dc:title></dc:title>
      </cc:Work>
    </rdf:RDF>
  </metadata>
  <g
     id="g4187"
     transform="matrix(0.99999988,0,0,-0.99999988,1.9999998e-4,16.000198)">
    <g
       id="g4189"
       transform="translate(1.9998,16.0002)">
      <path
         d="m 0,0 0,-3.001 -2,0 0,-12.999 14.001,0 0,2.999 1.999,0 L 14,0 0,0 Z"
         style="fill:#f6f6f6;fill-opacity:1;fill-rule:nonzero;stroke:none"
         id="path4191" />
    </g>
    <path
       d="M 11,7 5,7 5,8 11,8 11,7 Z M 12,2 2,2 2,10 12,10 12,2 Z M 1,1 13,1 13,12 1,12 1,1 Z M 14,5 4,5 4,13 14,13 14,5 Z M 3,4 15,4 15,15 3,15 3,4 Z"
       style="fill:#424242;fill-opacity:1;fill-rule:nonzero;stroke:none"
       id="path4193" />
    <path
       d="m 11,8 -6,0 0,-1 6,0 0,1 z m 1,-3 -8,0 0,5 8,0 0,-5 z m -8,8 0,-1 9,0 0,-7 1,0 0,8 -10,0 z M 2,10 3,10 3,4 12,4 12,2 2,2 2,10 Z"
       style="fill:#f0eff1;fill-opacity:1;fill-rule:nonzero;stroke:none"
       id="path4195" />
  </g>
</svg>
